<?xml version="1.0" encoding="UTF-8"?>
<svg xmlns="http://www.w3.org/2000/svg" version="1.1" viewBox="0 0 1080 1080">
  <defs>
    <style>
      .cls-1 {
        fill: #ce0538;
      }

      .cls-2 {
        fill: #003a78;
      }

      .cls-3 {
        fill: #fff;
      }

      .cls-4 {
        fill: none;
      }
    </style>
  </defs>
  <!-- Generator: Adobe Illustrator 28.6.0, SVG Export Plug-In . SVG Version: 1.2.0 Build 709)  -->
  <g>
    <g id="Capa_1">
      <rect class="cls-4" x="-200.8" y="748.2" width="2056.8" height="83.2"/>
      <rect class="cls-1" x="-200.8" y="664.8" width="2056.8" height="83.3"/>
      <rect class="cls-1" x="-200.8" y="997.9" width="2056.8" height="83.2"/>
      <rect class="cls-1" x="-200.8" y="831.3" width="2056.8" height="83.3"/>
      <rect class="cls-4" x="-200.8" y="581.6" width="2056.8" height="83.3"/>
      <rect class="cls-4" x="-200.8" y="914.7" width="2056.8" height="83.3"/>
      <rect class="cls-4" x="-200.8" y="415.2" width="2056.8" height="83.2"/>
      <rect class="cls-1" x="-200.8" y="498.3" width="2056.8" height="83.3"/>
      <rect class="cls-4" x="-200.8" y="82.1" width="2056.8" height="83.3"/>
      <rect class="cls-1" x="-200.8" y="165.4" width="2056.8" height="83.2"/>
      <rect class="cls-1" x="-200.8" y="-1.1" width="2056.8" height="83.2"/>
      <rect class="cls-4" x="-200.8" y="248.6" width="2056.8" height="83.3"/>
      <rect class="cls-1" x="-200.8" y="331.9" width="2056.8" height="83.3"/>
      <rect class="cls-2" x="-200.8" y="-1.1" width="821.8" height="581.9"/>
      <polygon class="cls-3" points="-68.5 71.9 -60.1 97.6 -33.1 97.6 -55 113.5 -46.6 139.2 -68.5 123.3 -90.3 139.2 -82 113.5 -103.8 97.6 -76.8 97.6 -68.5 71.9"/>
      <polygon class="cls-3" points="68.5 71.9 76.9 97.6 103.9 97.6 82 113.5 90.4 139.2 68.5 123.3 46.7 139.2 55 113.5 33.2 97.6 60.2 97.6 68.5 71.9"/>
      <polygon class="cls-3" points="205.1 71.9 213.4 97.6 240.4 97.6 218.6 113.5 226.9 139.2 205.1 123.3 183.2 139.2 191.6 113.5 169.7 97.6 196.7 97.6 205.1 71.9"/>
      <polygon class="cls-3" points="343.2 71.9 351.6 97.6 378.6 97.6 356.7 113.5 365.1 139.2 343.2 123.3 321.4 139.2 329.7 113.5 307.9 97.6 334.9 97.6 343.2 71.9"/>
      <polygon class="cls-3" points="479.6 71.9 487.9 97.6 514.9 97.6 493.1 113.5 501.4 139.2 479.6 123.3 457.8 139.2 466.1 113.5 444.3 97.6 471.3 97.6 479.6 71.9"/>
      <polygon class="cls-3" points="-68.5 190.5 -60.1 216.2 -33.1 216.2 -55 232.1 -46.6 257.8 -68.5 241.9 -90.3 257.8 -82 232.1 -103.8 216.2 -76.8 216.2 -68.5 190.5"/>
      <polygon class="cls-3" points="68.5 190.5 76.9 216.2 103.9 216.2 82 232.1 90.4 257.8 68.5 241.9 46.7 257.8 55 232.1 33.2 216.2 60.2 216.2 68.5 190.5"/>
      <polygon class="cls-3" points="205.1 190.5 213.4 216.2 240.4 216.2 218.6 232.1 226.9 257.8 205.1 241.9 183.2 257.8 191.6 232.1 169.7 216.2 196.7 216.2 205.1 190.5"/>
      <polygon class="cls-3" points="343.2 190.5 351.6 216.2 378.6 216.2 356.7 232.1 365.1 257.8 343.2 241.9 321.4 257.8 329.7 232.1 307.9 216.2 334.9 216.2 343.2 190.5"/>
      <polygon class="cls-3" points="479.6 190.5 487.9 216.2 514.9 216.2 493.1 232.1 501.4 257.8 479.6 241.9 457.8 257.8 466.1 232.1 444.3 216.2 471.3 216.2 479.6 190.5"/>
      <polygon class="cls-3" points="-68.5 307.2 -60.1 332.9 -33.1 332.9 -55 348.7 -46.6 374.4 -68.5 358.5 -90.3 374.4 -82 348.7 -103.8 332.9 -76.8 332.9 -68.5 307.2"/>
      <polygon class="cls-3" points="68.5 307.2 76.9 332.9 103.9 332.9 82 348.7 90.4 374.4 68.5 358.5 46.7 374.4 55 348.7 33.2 332.9 60.2 332.9 68.5 307.2"/>
      <polygon class="cls-3" points="205.1 307.2 213.4 332.9 240.4 332.9 218.6 348.7 226.9 374.4 205.1 358.5 183.2 374.4 191.6 348.7 169.7 332.9 196.7 332.9 205.1 307.2"/>
      <polygon class="cls-3" points="343.2 307.2 351.6 332.9 378.6 332.9 356.7 348.7 365.1 374.4 343.2 358.5 321.4 374.4 329.7 348.7 307.9 332.9 334.9 332.9 343.2 307.2"/>
      <polygon class="cls-3" points="479.6 307.2 487.9 332.9 514.9 332.9 493.1 348.7 501.4 374.4 479.6 358.5 457.8 374.4 466.1 348.7 444.3 332.9 471.3 332.9 479.6 307.2"/>
      <polygon class="cls-3" points="-68.5 425 -60.1 450.7 -33.1 450.7 -55 466.6 -46.6 492.3 -68.5 476.4 -90.3 492.3 -82 466.6 -103.8 450.7 -76.8 450.7 -68.5 425"/>
      <polygon class="cls-3" points="68.5 425 76.9 450.7 103.9 450.7 82 466.6 90.4 492.3 68.5 476.4 46.7 492.3 55 466.6 33.2 450.7 60.2 450.7 68.5 425"/>
      <polygon class="cls-3" points="205.1 425 213.4 450.7 240.4 450.7 218.6 466.6 226.9 492.3 205.1 476.4 183.2 492.3 191.6 466.6 169.7 450.7 196.7 450.7 205.1 425"/>
      <polygon class="cls-3" points="343.2 425 351.6 450.7 378.6 450.7 356.7 466.6 365.1 492.3 343.2 476.4 321.4 492.3 329.7 466.6 307.9 450.7 334.9 450.7 343.2 425"/>
      <polygon class="cls-3" points="479.6 425 487.9 450.7 514.9 450.7 493.1 466.6 501.4 492.3 479.6 476.4 457.8 492.3 466.1 466.6 444.3 450.7 471.3 450.7 479.6 425"/>
      <polygon class="cls-3" points="-137.2 131 -128.8 156.7 -101.8 156.7 -123.7 172.5 -115.3 198.2 -137.2 182.3 -159 198.2 -150.7 172.5 -172.5 156.7 -145.5 156.7 -137.2 131"/>
      <polygon class="cls-3" points="-.2 131 8.2 156.7 35.2 156.7 13.3 172.5 21.7 198.2 -.2 182.3 -22 198.2 -13.7 172.5 -35.5 156.7 -8.5 156.7 -.2 131"/>
      <polygon class="cls-3" points="136.4 131 144.7 156.7 171.7 156.7 149.9 172.5 158.2 198.2 136.4 182.3 114.5 198.2 122.9 172.5 101 156.7 128 156.7 136.4 131"/>
      <polygon class="cls-3" points="274.5 131 282.9 156.7 309.9 156.7 288 172.5 296.4 198.2 274.5 182.3 252.7 198.2 261 172.5 239.2 156.7 266.2 156.7 274.5 131"/>
      <polygon class="cls-3" points="410.9 131 419.2 156.7 446.2 156.7 424.4 172.5 432.7 198.2 410.9 182.3 389.1 198.2 397.4 172.5 375.6 156.7 402.6 156.7 410.9 131"/>
      <polygon class="cls-3" points="548.2 131 556.5 156.7 583.5 156.7 561.7 172.5 570 198.2 548.2 182.3 526.4 198.2 534.7 172.5 512.9 156.7 539.9 156.7 548.2 131"/>
      <polygon class="cls-3" points="-137.2 13.2 -128.8 38.9 -101.8 38.9 -123.7 54.8 -115.3 80.5 -137.2 64.6 -159 80.5 -150.7 54.8 -172.5 38.9 -145.5 38.9 -137.2 13.2"/>
      <polygon class="cls-3" points="-.2 13.2 8.2 38.9 35.2 38.9 13.3 54.8 21.7 80.5 -.2 64.6 -22 80.5 -13.7 54.8 -35.5 38.9 -8.5 38.9 -.2 13.2"/>
      <polygon class="cls-3" points="136.4 13.2 144.7 38.9 171.7 38.9 149.9 54.8 158.2 80.5 136.4 64.6 114.5 80.5 122.9 54.8 101 38.9 128 38.9 136.4 13.2"/>
      <polygon class="cls-3" points="274.5 13.2 282.9 38.9 309.9 38.9 288 54.8 296.4 80.5 274.5 64.6 252.7 80.5 261 54.8 239.2 38.9 266.2 38.9 274.5 13.2"/>
      <polygon class="cls-3" points="410.9 13.2 419.2 38.9 446.2 38.9 424.4 54.8 432.7 80.5 410.9 64.6 389.1 80.5 397.4 54.8 375.6 38.9 402.6 38.9 410.9 13.2"/>
      <polygon class="cls-3" points="548.2 13.2 556.5 38.9 583.5 38.9 561.7 54.8 570 80.5 548.2 64.6 526.4 80.5 534.7 54.8 512.9 38.9 539.9 38.9 548.2 13.2"/>
      <polygon class="cls-3" points="-137.2 249.1 -128.8 274.8 -101.8 274.8 -123.7 290.6 -115.3 316.3 -137.2 300.5 -159 316.3 -150.7 290.6 -172.5 274.8 -145.5 274.8 -137.2 249.1"/>
      <polygon class="cls-3" points="-.2 249.1 8.2 274.8 35.2 274.8 13.3 290.6 21.7 316.3 -.2 300.5 -22 316.3 -13.7 290.6 -35.5 274.8 -8.5 274.8 -.2 249.1"/>
      <polygon class="cls-3" points="136.4 249.1 144.7 274.8 171.7 274.8 149.9 290.6 158.2 316.3 136.4 300.5 114.5 316.3 122.9 290.6 101 274.8 128 274.8 136.4 249.1"/>
      <polygon class="cls-3" points="274.5 249.1 282.9 274.8 309.9 274.8 288 290.6 296.4 316.3 274.5 300.5 252.7 316.3 261 290.6 239.2 274.8 266.2 274.8 274.5 249.1"/>
      <polygon class="cls-3" points="410.9 249.1 419.2 274.8 446.2 274.8 424.4 290.6 432.7 316.3 410.9 300.5 389.1 316.3 397.4 290.6 375.6 274.8 402.6 274.8 410.9 249.1"/>
      <polygon class="cls-3" points="548.2 249.1 556.5 274.8 583.5 274.8 561.7 290.6 570 316.3 548.2 300.5 526.4 316.3 534.7 290.6 512.9 274.8 539.9 274.8 548.2 249.1"/>
      <polygon class="cls-3" points="-137.2 367.4 -128.8 393 -101.8 393 -123.7 408.9 -115.3 434.6 -137.2 418.7 -159 434.6 -150.7 408.9 -172.5 393 -145.5 393 -137.2 367.4"/>
      <polygon class="cls-3" points="-.2 367.4 8.2 393 35.2 393 13.3 408.9 21.7 434.6 -.2 418.7 -22 434.6 -13.7 408.9 -35.5 393 -8.5 393 -.2 367.4"/>
      <polygon class="cls-3" points="136.4 367.4 144.7 393 171.7 393 149.9 408.9 158.2 434.6 136.4 418.7 114.5 434.6 122.9 408.9 101 393 128 393 136.4 367.4"/>
      <polygon class="cls-3" points="274.5 367.4 282.9 393 309.9 393 288 408.9 296.4 434.6 274.5 418.7 252.7 434.6 261 408.9 239.2 393 266.2 393 274.5 367.4"/>
      <polygon class="cls-3" points="410.9 367.4 419.2 393 446.2 393 424.4 408.9 432.7 434.6 410.9 418.7 389.1 434.6 397.4 408.9 375.6 393 402.6 393 410.9 367.4"/>
      <polygon class="cls-3" points="548.2 367.4 556.5 393 583.5 393 561.7 408.9 570 434.6 548.2 418.7 526.4 434.6 534.7 408.9 512.9 393 539.9 393 548.2 367.4"/>
      <polygon class="cls-3" points="-137.2 483.2 -128.8 508.9 -101.8 508.9 -123.7 524.8 -115.3 550.5 -137.2 534.6 -159 550.5 -150.7 524.8 -172.5 508.9 -145.5 508.9 -137.2 483.2"/>
      <polygon class="cls-3" points="-.2 483.2 8.2 508.9 35.2 508.9 13.3 524.8 21.7 550.5 -.2 534.6 -22 550.5 -13.7 524.8 -35.5 508.9 -8.5 508.9 -.2 483.2"/>
      <polygon class="cls-3" points="136.4 483.2 144.7 508.9 171.7 508.9 149.9 524.8 158.2 550.5 136.4 534.6 114.5 550.5 122.9 524.8 101 508.9 128 508.9 136.4 483.2"/>
      <polygon class="cls-3" points="274.5 483.2 282.9 508.9 309.9 508.9 288 524.8 296.4 550.5 274.5 534.6 252.7 550.5 261 524.8 239.2 508.9 266.2 508.9 274.5 483.2"/>
      <polygon class="cls-3" points="410.9 483.2 419.2 508.9 446.2 508.9 424.4 524.8 432.7 550.5 410.9 534.6 389.1 550.5 397.4 524.8 375.6 508.9 402.6 508.9 410.9 483.2"/>
      <polygon class="cls-3" points="548.2 483.2 556.5 508.9 583.5 508.9 561.7 524.8 570 550.5 548.2 534.6 526.4 550.5 534.7 524.8 512.9 508.9 539.9 508.9 548.2 483.2"/>
    </g>
  </g>
</svg>