<?xml version="1.0" encoding="UTF-8"?>
<svg xmlns="http://www.w3.org/2000/svg" version="1.1" viewBox="0 0 2160 2160">
  <defs>
    <style>
      .cls-1 {
        fill: #fff;
      }

      .cls-2 {
        isolation: isolate;
      }
    </style>
  </defs>
  <!-- Generator: Adobe Illustrator 28.6.0, SVG Export Plug-In . SVG Version: 1.2.0 Build 709)  -->
  <g>
    <g id="Capa_1">
      <g class="cls-2">
        <g id="Capa_2">
          <g>
            <path class="cls-1" d="M1497.8,1992c-17.8-20.8-36.4-41.8-54.4-62-22.2-25-45.1-50.8-67.2-77.1-5.3-6.3-10.6-12.6-15.8-18.9-71.4,18.6-146,27-221.5,24.2-.2,23.5-.4,47-.7,70.4-.5,42.7-6.9,70-21.2,91.3-17.9,26.7-46.4,40.2-84.6,40.2s-32.6-2-54.6-6.3c-17-3.3-30.7-15.8-35.7-32.4-1.2-4-1.9-8.1-2-12.2v-1.2c-.8-19.7-3.3-90.8-6.4-185.6-22.4-7.4-215.2-78.7-293.8-172.1-48.6-45.6-90.8-97.2-125.8-153-7.7,2.4-16.1,4.1-25.3,4.1-16.4,0-46.8-5.7-66.5-43.5-12.2-23.5-16.1-47-11.5-69.7,3.7-18.2,12.8-35.2,27-50.6-51.8-150.7-57.5-318.8-5.7-482.4,78-246.8,268.7-426.6,497.4-500.9.8-4.3,1.8-8.7,3.1-13.1,7.4-23.8,23.3-42.6,46-54.1,15.3-7.8,31.1-11.7,47.1-11.7,32.4,0,58.8,16.2,78.1,30.3,5.6,4.1,11.3,8.2,16.9,12.3,73.8-4.5,149.3,1.7,224.3,19.5l91.3-53.2c-21.7-8.6-43.6-16.8-66.2-23.9C863.6,100.2,323.6,380.8,163.6,886.9c-120.3,380.5,8.5,780.2,294.9,1023.1,57.6,63,251.9,157.8,331.8,183.1,258.3,81.7,525.5,48.6,746.4-70.7-12.8-6-26.1-15.5-38.9-30.4h0Z"/>
            <path class="cls-1" d="M1722,461.4l-36.1,55.7c215.5,196.3,310,506.7,216.3,802.8-59.9,189.4-186.1,339.4-345,432.6,3.6,4.6,7.2,9.1,10.7,13.6l3.1,3.9c29.9,38,60.9,77.2,81.1,126.5.9,2.2,2.5,5.3,4.2,8.7,4.2,8.3,9.6,18.9,12.4,31.4,149.5-115.6,266.5-276.3,327.8-470.1,117.4-371.3-2.5-760.6-274.5-1005h0Z"/>
            <path class="cls-1" d="M1946.5,364.3v-212.4h-212.4c-2.9,0-5.2,2.3-5.2,5.2v212.4h212.4c2.9,0,5.2-2.3,5.2-5.2Z"/>
            <path class="cls-1" d="M1600.4,108.1V21.1h-87c-24.1,0-43.7,19.6-43.7,43.7v87h87c24.1,0,43.7-19.6,43.7-43.7Z"/>
            <path class="cls-1" d="M1881.1,470.7v87h87c24.1,0,43.7-19.6,43.7-43.7v-87h-87c-24.1,0-43.7,19.6-43.7,43.7Z"/>
            <path class="cls-1" d="M1436,526.4h127.4c35.3,0,64-28.7,64-64v-127.4h-127.4c-35.3,0-64,28.7-64,64v127.4Z"/>
            <path class="cls-1" d="M1531.2,1795.1c-5.2-6.6-10.4-13.2-15.6-19.9-122.3-155.3-244.1-311.1-367.9-465.3-26.6-33.1-24.1-45,13.1-68.8,171.7-109.6,337.6-227.9,499.2-352.2,62.1-47.8,61.4-74.4-3.2-122.2-41.4-30.6-82.9-61.2-124.5-91.5-152.1-110.7-304.4-221.1-456.3-332.1-9.8-7.2-19.7-13.4-29.9-17.3-6.7-2.5-13.5-4-20.6-4s-16.8,2-25.9,6.6c-5.3,2.7-9.4,5.8-12.8,9.3-14.8,15.4-12.8,37.6-13.1,58.4-.7,49.6-1.9,99.3-.7,148.9.6,24.2-7.4,40.6-26.7,55.2-64.7,49-128.7,99.1-192.4,149.4-93.3,73.7-185.7,148.4-279.2,221.7-24.7,19.4-24,44-13.9,66.8,6.6,14.7,16.1,19.4,27,19.4s22.4-4.5,33.9-8.4c47.8-16.6,86-48.7,126.1-77.5,103.9-74.4,207.1-149.7,318.9-230.8,0,81.4-.2,150.2.2,219.1,0,18.9-12.7,27.1-25.4,37-64.2,49.8-128,100-191.7,150.4-90.1,71.2-183.7,137.9-270.1,214-10.9,9.6-17.9,19.3-21.5,29.4-5,14.3-3,29.3,5.3,45.2,7.2,13.8,15.8,18.3,25,18.3s.3,0,.4,0c13.2-.2,27.4-9.5,40.1-14,41.5-14.9,75.5-42.9,110.9-68.3,99.7-71.3,195.4-148.5,300.3-212.5,2-.4,3.9-.6,5.6-.6,12.9,0,16.2,10.6,18.2,22.3,1.1,163,10.4,464,16.7,654.2,3.4,102,6,172.2,6,172.2h0c17.9,3.5,33,5.4,45.6,5.4,44.2,0,58.3-23.6,59.1-85.3.3-24.3.5-48.6.7-72.9.8-114.7.5-229.4,1.6-344.1,0-16.2-8.4-35.4,13.8-53,100.8,120.9,200.9,241.6,301.8,361.7.9,1.1,1.8,2.2,2.7,3.2,39.6,47,81.4,92.1,121.4,138.8,13.4,15.7,28.8,23.3,44.6,23.3s20.6-3.1,30.8-9.2c29.2-17.4,8.7-40.3,0-61.4-18.3-44.8-48.2-81.8-77.6-119.2v.3ZM1099.1,1192.1c-.4,0-.7,0-1-.2-16.5-6.7-11.4-354-11.8-512.5,0-57.3,0-114.6,0-187.1,162.5,117.1,314,226.2,469.3,338.2-126.6,99.3-430.1,361.6-456.6,361.6h.1Z"/>
          </g>
        </g>
      </g>
    </g>
  </g>
</svg>