<?xml version="1.0" encoding="UTF-8"?>
<svg xmlns="http://www.w3.org/2000/svg" version="1.1" xmlns:xlink="http://www.w3.org/1999/xlink" viewBox="0 0 2160 2160">
  <defs>
    <style>
      .cls-1 {
        fill: url(#Degradado_sin_nombre_6);
      }

      .cls-2 {
        fill: url(#linear-gradient-13);
      }

      .cls-3 {
        fill: url(#linear-gradient-28);
      }

      .cls-4 {
        fill: url(#Degradado_sin_nombre_6-12);
      }

      .cls-5 {
        fill: url(#Degradado_sin_nombre_5);
      }

      .cls-6 {
        fill: #12100b;
      }

      .cls-7 {
        fill: url(#Degradado_sin_nombre_6-4);
      }

      .cls-8 {
        fill: url(#linear-gradient-2);
      }

      .cls-9 {
        fill: url(#linear-gradient-9);
      }

      .cls-9, .cls-10, .cls-11, .cls-12, .cls-13, .cls-14, .cls-15, .cls-16, .cls-17, .cls-18, .cls-19, .cls-20, .cls-21 {
        mix-blend-mode: multiply;
      }

      .cls-22 {
        fill: url(#linear-gradient-25);
      }

      .cls-23 {
        fill: url(#linear-gradient-10);
      }

      .cls-24 {
        fill: url(#linear-gradient-27);
      }

      .cls-25 {
        fill: url(#Degradado_sin_nombre_6-8);
      }

      .cls-26 {
        fill: #fff;
      }

      .cls-27 {
        font-size: 300px;
      }

      .cls-28 {
        fill: url(#Degradado_sin_nombre_6-3);
      }

      .cls-29 {
        fill: url(#Degradado_sin_nombre_6-9);
      }

      .cls-30 {
        fill: url(#Degradado_sin_nombre_354);
      }

      .cls-31 {
        fill: url(#Degradado_sin_nombre_2-4);
      }

      .cls-32 {
        fill: url(#linear-gradient-26);
      }

      .cls-33 {
        fill: url(#Degradado_sin_nombre_354-5);
      }

      .cls-10 {
        fill: url(#linear-gradient-24);
      }

      .cls-34 {
        fill: none;
      }

      .cls-35 {
        fill: url(#linear-gradient-4);
      }

      .cls-11 {
        fill: url(#linear-gradient-12);
      }

      .cls-36 {
        fill: url(#Degradado_sin_nombre_92);
      }

      .cls-37 {
        fill: url(#Degradado_sin_nombre_354-3);
      }

      .cls-38 {
        font-size: 250px;
      }

      .cls-39 {
        fill: url(#Degradado_sin_nombre_6-5);
      }

      .cls-40 {
        fill: url(#Degradado_sin_nombre_6-10);
      }

      .cls-41 {
        fill: url(#linear-gradient-22);
      }

      .cls-42 {
        fill: url(#Degradado_sin_nombre_2);
      }

      .cls-43 {
        isolation: isolate;
      }

      .cls-12 {
        fill: url(#linear-gradient-21);
      }

      .cls-44 {
        font-family: Righteous-Regular, Righteous;
        font-size: 248.9px;
      }

      .cls-45 {
        fill: url(#linear-gradient-8);
      }

      .cls-13 {
        fill: url(#linear-gradient-23);
      }

      .cls-46 {
        fill: url(#linear-gradient-14);
      }

      .cls-47 {
        fill: #f2ae0e;
      }

      .cls-48 {
        fill: url(#Degradado_sin_nombre_5-3);
      }

      .cls-14 {
        fill: url(#linear-gradient-18);
      }

      .cls-49 {
        fill: url(#linear-gradient-20);
      }

      .cls-15 {
        fill: url(#linear-gradient-5);
      }

      .cls-50 {
        fill: url(#linear-gradient-7);
      }

      .cls-51 {
        fill: url(#Degradado_sin_nombre_6-6);
      }

      .cls-52 {
        fill: url(#Degradado_sin_nombre_5-5);
      }

      .cls-16 {
        fill: url(#linear-gradient-11);
      }

      .cls-18 {
        fill: url(#linear-gradient-3);
      }

      .cls-53 {
        fill: url(#linear-gradient-19);
      }

      .cls-54 {
        fill: url(#Degradado_sin_nombre_354-4);
      }

      .cls-55 {
        fill: url(#Degradado_sin_nombre_2-3);
      }

      .cls-19 {
        fill: url(#linear-gradient-17);
      }

      .cls-56 {
        fill: url(#Degradado_sin_nombre_6-7);
      }

      .cls-57 {
        fill: url(#Degradado_sin_nombre_354-7);
      }

      .cls-58 {
        opacity: 0;
      }

      .cls-20 {
        fill: url(#linear-gradient-15);
      }

      .cls-59 {
        font-family: BebasKai, 'Bebas Kai';
      }

      .cls-60 {
        fill: url(#Degradado_sin_nombre_354-2);
      }

      .cls-61 {
        fill: url(#linear-gradient-16);
      }

      .cls-62 {
        fill: url(#Degradado_sin_nombre_5-2);
      }

      .cls-63 {
        fill: url(#Degradado_sin_nombre_6-11);
      }

      .cls-64 {
        fill: url(#linear-gradient);
      }

      .cls-65 {
        fill: url(#Degradado_sin_nombre_5-6);
      }

      .cls-66 {
        fill: url(#Degradado_sin_nombre_2-2);
      }

      .cls-67 {
        fill: url(#Degradado_sin_nombre_92-2);
      }

      .cls-68 {
        fill: url(#Degradado_sin_nombre_5-4);
      }

      .cls-69 {
        fill: url(#Degradado_sin_nombre_6-2);
      }

      .cls-70 {
        fill: url(#Degradado_sin_nombre_354-6);
      }

      .cls-21 {
        fill: url(#linear-gradient-6);
      }

      .cls-71 {
        fill: url(#Degradado_sin_nombre_5-7);
      }
    </style>
    <linearGradient id="Degradado_sin_nombre_2" data-name="Degradado sin nombre 2" x1="-3079.9" y1="-4692.7" x2="-2749.4" y2="-3447.5" gradientTransform="translate(-1154.4 -8273) rotate(-126.8)" gradientUnits="userSpaceOnUse">
      <stop offset="0" stop-color="#f0ae12"/>
      <stop offset="1" stop-color="#f0ae12"/>
    </linearGradient>
    <linearGradient id="Degradado_sin_nombre_2-2" data-name="Degradado sin nombre 2" x1="-2661.7" y1="-4803.7" x2="-2331.2" y2="-3558.5" xlink:href="#Degradado_sin_nombre_2"/>
    <linearGradient id="Degradado_sin_nombre_2-3" data-name="Degradado sin nombre 2" x1="-2583" y1="-4824.5" x2="-2252.5" y2="-3579.4" xlink:href="#Degradado_sin_nombre_2"/>
    <linearGradient id="Degradado_sin_nombre_2-4" data-name="Degradado sin nombre 2" x1="-3001.8" y1="-4713.4" x2="-2671.3" y2="-3468.2" xlink:href="#Degradado_sin_nombre_2"/>
    <linearGradient id="Degradado_sin_nombre_6" data-name="Degradado sin nombre 6" x1="-841.1" y1="-3223.2" x2="-841.1" y2="-3120.9" gradientUnits="userSpaceOnUse">
      <stop offset="0" stop-color="#03e4fb"/>
      <stop offset="1" stop-color="#045193"/>
    </linearGradient>
    <linearGradient id="Degradado_sin_nombre_6-2" data-name="Degradado sin nombre 6" x1="-103.4" y1="-4120.3" x2="-103.4" y2="-4041.8" xlink:href="#Degradado_sin_nombre_6"/>
    <linearGradient id="Degradado_sin_nombre_6-3" data-name="Degradado sin nombre 6" x1="-986.5" y1="-3231" x2="-986.5" y2="-3184.6" xlink:href="#Degradado_sin_nombre_6"/>
    <linearGradient id="Degradado_sin_nombre_6-4" data-name="Degradado sin nombre 6" x1="13.1" y1="-3798.4" x2="13.1" y2="-3777.8" xlink:href="#Degradado_sin_nombre_6"/>
    <linearGradient id="Degradado_sin_nombre_6-5" data-name="Degradado sin nombre 6" x1="-862.8" y1="-4206" x2="-862.8" y2="-3201.8" xlink:href="#Degradado_sin_nombre_6"/>
    <linearGradient id="Degradado_sin_nombre_6-6" data-name="Degradado sin nombre 6" x1="-863.3" y1="-4206" x2="-863.3" y2="-3201.8" xlink:href="#Degradado_sin_nombre_6"/>
    <linearGradient id="Degradado_sin_nombre_6-7" data-name="Degradado sin nombre 6" x1="-414.4" y1="-4206" x2="-414.4" y2="-3201.8" xlink:href="#Degradado_sin_nombre_6"/>
    <linearGradient id="Degradado_sin_nombre_6-8" data-name="Degradado sin nombre 6" x1="-506.7" y1="-4206" x2="-506.7" y2="-3201.8" xlink:href="#Degradado_sin_nombre_6"/>
    <linearGradient id="Degradado_sin_nombre_6-9" data-name="Degradado sin nombre 6" x1="-909.9" y1="-4206" x2="-909.9" y2="-3201.8" xlink:href="#Degradado_sin_nombre_6"/>
    <linearGradient id="Degradado_sin_nombre_6-10" data-name="Degradado sin nombre 6" x1="-505.9" y1="-4164.6" x2="-505.9" y2="-3182.8" xlink:href="#Degradado_sin_nombre_6"/>
    <linearGradient id="Degradado_sin_nombre_6-11" data-name="Degradado sin nombre 6" x1="-790.9" y1="-4164.6" x2="-790.9" y2="-3182.8" xlink:href="#Degradado_sin_nombre_6"/>
    <linearGradient id="Degradado_sin_nombre_6-12" data-name="Degradado sin nombre 6" x1="-247.4" y1="-4164.6" x2="-247.4" y2="-3182.8" xlink:href="#Degradado_sin_nombre_6"/>
    <linearGradient id="Degradado_sin_nombre_5" data-name="Degradado sin nombre 5" x1="-1741.3" y1="1149.7" x2="-983.1" y2="1149.7" gradientUnits="userSpaceOnUse">
      <stop offset="0" stop-color="#49d400"/>
      <stop offset=".5" stop-color="#4e9b59"/>
      <stop offset="1" stop-color="#25a720"/>
    </linearGradient>
    <linearGradient id="Degradado_sin_nombre_5-2" data-name="Degradado sin nombre 5" x1="-972.1" y1="1161.6" x2="-713.3" y2="1161.6" xlink:href="#Degradado_sin_nombre_5"/>
    <linearGradient id="Degradado_sin_nombre_5-3" data-name="Degradado sin nombre 5" x1="-880.4" y1="659.9" x2="-764" y2="659.9" xlink:href="#Degradado_sin_nombre_5"/>
    <linearGradient id="Degradado_sin_nombre_5-4" data-name="Degradado sin nombre 5" x1="-1018.9" y1="566.8" x2="-949" y2="566.8" xlink:href="#Degradado_sin_nombre_5"/>
    <linearGradient id="Degradado_sin_nombre_5-5" data-name="Degradado sin nombre 5" x1="-798.9" y1="783.8" x2="-729.1" y2="783.8" xlink:href="#Degradado_sin_nombre_5"/>
    <linearGradient id="Degradado_sin_nombre_5-6" data-name="Degradado sin nombre 5" x1="-1037" y1="750.9" x2="-934.6" y2="750.9" xlink:href="#Degradado_sin_nombre_5"/>
    <linearGradient id="Degradado_sin_nombre_5-7" data-name="Degradado sin nombre 5" x1="-1561.9" y1="1144.8" x2="-892.6" y2="1144.8" xlink:href="#Degradado_sin_nombre_5"/>
    <linearGradient id="Degradado_sin_nombre_354" data-name="Degradado sin nombre 354" x1="1223.2" y1="-3608.7" x2="1981.3" y2="-3608.7" gradientUnits="userSpaceOnUse">
      <stop offset="0" stop-color="#d47600"/>
      <stop offset=".5" stop-color="#fbbd17"/>
      <stop offset="1" stop-color="#fbae17"/>
    </linearGradient>
    <linearGradient id="Degradado_sin_nombre_354-2" data-name="Degradado sin nombre 354" x1="1992.3" y1="-3596.7" x2="2251.2" y2="-3596.7" xlink:href="#Degradado_sin_nombre_354"/>
    <linearGradient id="Degradado_sin_nombre_354-3" data-name="Degradado sin nombre 354" x1="2084.1" y1="-4098.4" x2="2200.5" y2="-4098.4" xlink:href="#Degradado_sin_nombre_354"/>
    <linearGradient id="Degradado_sin_nombre_354-4" data-name="Degradado sin nombre 354" x1="1945.5" y1="-4191.6" x2="2015.4" y2="-4191.6" xlink:href="#Degradado_sin_nombre_354"/>
    <linearGradient id="Degradado_sin_nombre_354-5" data-name="Degradado sin nombre 354" x1="2165.5" y1="-3974.5" x2="2235.4" y2="-3974.5" xlink:href="#Degradado_sin_nombre_354"/>
    <linearGradient id="Degradado_sin_nombre_354-6" data-name="Degradado sin nombre 354" x1="1927.5" y1="-4007.5" x2="2029.8" y2="-4007.5" xlink:href="#Degradado_sin_nombre_354"/>
    <linearGradient id="Degradado_sin_nombre_354-7" data-name="Degradado sin nombre 354" x1="1402.5" y1="-3613.5" x2="2071.8" y2="-3613.5" xlink:href="#Degradado_sin_nombre_354"/>
    <linearGradient id="linear-gradient" x1="1900.4" y1="-5020.8" x2="943.4" y2="-6236.7" gradientUnits="userSpaceOnUse">
      <stop offset="0" stop-color="#f09802"/>
      <stop offset="1" stop-color="#f09802"/>
    </linearGradient>
    <linearGradient id="linear-gradient-2" x1="1900.3" y1="-5020.8" x2="943.4" y2="-6236.7" xlink:href="#linear-gradient"/>
    <linearGradient id="linear-gradient-3" x1="1926.4" y1="-5041.3" x2="969.5" y2="-6257.2" xlink:href="#linear-gradient"/>
    <linearGradient id="linear-gradient-4" x1="2512.9" y1="-5502.9" x2="1556" y2="-6718.8" xlink:href="#linear-gradient"/>
    <linearGradient id="linear-gradient-5" x1="2486.9" y1="-5482.4" x2="1529.9" y2="-6698.3" xlink:href="#linear-gradient"/>
    <linearGradient id="linear-gradient-6" x1="1370.1" y1="-5881.1" x2="2070.5" y2="-5881.1" xlink:href="#linear-gradient"/>
    <linearGradient id="Degradado_sin_nombre_92" data-name="Degradado sin nombre 92" x1="3739.9" y1="-5807.5" x2="4294.4" y2="-5807.5" gradientUnits="userSpaceOnUse">
      <stop offset="0" stop-color="#f09802"/>
      <stop offset="1" stop-color="#f0da02"/>
    </linearGradient>
    <linearGradient id="Degradado_sin_nombre_92-2" data-name="Degradado sin nombre 92" x1="3459.9" y1="-5807.5" x2="4574.5" y2="-5807.5" xlink:href="#Degradado_sin_nombre_92"/>
    <linearGradient id="linear-gradient-7" x1="1215.7" y1="-516" x2="394.2" y2="-1559.7" gradientUnits="userSpaceOnUse">
      <stop offset="0" stop-color="#cd473a"/>
      <stop offset="1" stop-color="#cd473a"/>
    </linearGradient>
    <linearGradient id="linear-gradient-8" x1="1215.7" y1="-515.9" x2="394.2" y2="-1559.7" xlink:href="#linear-gradient-7"/>
    <linearGradient id="linear-gradient-9" x1="1238.1" y1="-533.5" x2="416.6" y2="-1577.3" xlink:href="#linear-gradient-7"/>
    <linearGradient id="linear-gradient-10" x1="1741.5" y1="-929.8" x2="920" y2="-1973.6" xlink:href="#linear-gradient-7"/>
    <linearGradient id="linear-gradient-11" x1="1719.2" y1="-912.2" x2="897.7" y2="-1956" xlink:href="#linear-gradient-7"/>
    <linearGradient id="linear-gradient-12" x1="1042.2" y1="-1267.5" x2="1421.4" y2="-1267.5" xlink:href="#linear-gradient-7"/>
    <linearGradient id="linear-gradient-13" x1="-1091.6" y1="-516" x2="-1913.1" y2="-1559.7" gradientUnits="userSpaceOnUse">
      <stop offset="0" stop-color="#00bd32"/>
      <stop offset="1" stop-color="#00bd32"/>
    </linearGradient>
    <linearGradient id="linear-gradient-14" x1="-1091.6" y1="-515.9" x2="-1913.1" y2="-1559.7" xlink:href="#linear-gradient-13"/>
    <linearGradient id="linear-gradient-15" x1="-1069.2" y1="-533.5" x2="-1890.7" y2="-1577.3" xlink:href="#linear-gradient-13"/>
    <linearGradient id="linear-gradient-16" x1="-565.8" y1="-929.8" x2="-1387.2" y2="-1973.6" xlink:href="#linear-gradient-13"/>
    <linearGradient id="linear-gradient-17" x1="-588.1" y1="-912.2" x2="-1409.6" y2="-1956" xlink:href="#linear-gradient-13"/>
    <linearGradient id="linear-gradient-18" x1="-1265.1" y1="-1267.5" x2="-885.9" y2="-1267.5" xlink:href="#linear-gradient-13"/>
    <linearGradient id="linear-gradient-19" x1="4152.9" y1="-2939.6" x2="3331.4" y2="-3983.4" xlink:href="#linear-gradient"/>
    <linearGradient id="linear-gradient-20" x1="4152.8" y1="-2939.6" x2="3331.3" y2="-3983.4" xlink:href="#linear-gradient"/>
    <linearGradient id="linear-gradient-21" x1="4175.2" y1="-2957.2" x2="3353.7" y2="-4001" xlink:href="#linear-gradient"/>
    <linearGradient id="linear-gradient-22" x1="4678.7" y1="-3353.5" x2="3857.2" y2="-4397.2" xlink:href="#linear-gradient"/>
    <linearGradient id="linear-gradient-23" x1="4656.3" y1="-3335.9" x2="3834.8" y2="-4379.6" xlink:href="#linear-gradient"/>
    <linearGradient id="linear-gradient-24" x1="3979.3" y1="-3691.2" x2="4358.5" y2="-3691.2" xlink:href="#linear-gradient"/>
    <linearGradient id="linear-gradient-25" x1="-2699.3" y1="-6449.3" x2="-2699.3" y2="-5628.5" gradientUnits="userSpaceOnUse">
      <stop offset="0" stop-color="#f8b133"/>
      <stop offset=".1" stop-color="#f7ae2f"/>
      <stop offset=".3" stop-color="#f6a723"/>
      <stop offset=".4" stop-color="#f39b10"/>
      <stop offset=".5" stop-color="#f29100"/>
      <stop offset=".8" stop-color="#e84e1b"/>
      <stop offset=".9" stop-color="#e31a15"/>
      <stop offset="1" stop-color="#e20613"/>
    </linearGradient>
    <linearGradient id="linear-gradient-26" x1="796.5" y1="-1246" x2="1090.4" y2="-1246" xlink:href="#linear-gradient-7"/>
    <linearGradient id="linear-gradient-27" x1="-1510.8" y1="-1246" x2="-1216.9" y2="-1246" xlink:href="#linear-gradient-13"/>
    <linearGradient id="linear-gradient-28" x1="3733.7" y1="-3669.6" x2="4027.5" y2="-3669.6" xlink:href="#linear-gradient"/>
  </defs>
  <!-- Generator: Adobe Illustrator 28.6.0, SVG Export Plug-In . SVG Version: 1.2.0 Build 709)  -->
  <g class="cls-43">
    <g id="Capa_2">
      <path class="cls-47" d="M-269-6109.7c-15.7-11.6-31.4-23.2-47.2-34.6-57.7-41.9-115.5-83.7-173.1-125.6-9-6.6-18-11.1-29-5.6-10.8,5.5-9.7,15.9-9.8,25.6-.3,18.8-.7,37.6-.3,56.4.2,9.2-2.8,15.4-10.1,20.9-24.6,18.5-48.8,37.5-73,56.5-35.4,27.9-70.5,56.1-106,83.9-9.4,7.3-9.1,16.7-5.3,25.3,4.9,11,14.3,7.2,23.1,4.1,18.1-6.3,32.6-18.4,47.8-29.3,39.4-28.1,78.6-56.7,121-87.3,0,30.8,0,56.8,0,82.9,0,7.2-4.8,10.3-9.6,14-24.4,18.8-48.6,37.8-72.7,56.9-34.2,27-69.7,52.2-102.5,81-10,8.8-11.5,17.9-6.1,28.2,6.7,12.8,16.6,4.6,24.9,1.6,15.7-5.6,28.6-16.2,42.1-25.8,37.8-27,74.1-56.2,113.9-80.4,6.7-1.3,8.1,3.2,9,8.2.6,94.8,8.6,312.7,8.6,312.7,0,0,0,0,0,0,30.6,6,39.3-.2,39.7-30.2.7-52.6.4-105.2.9-157.8,0-6.1-3.2-13.4,5.2-20.1,38.6,46.2,76.9,92.3,115.5,138.1,15,17.8,30.9,34.9,46.1,52.5,8.3,9.7,18.7,11.2,28.6,5.3,11.1-6.6,3.3-15.3,0-23.2-7-16.9-18.3-31-29.4-45.1-48.4-61.3-96.5-122.8-145.5-183.6-10.1-12.5-9.2-17,5-26,65.2-41.5,128.1-86.3,189.4-133.3,23.6-18.1,23.3-28.2-1.2-46.2ZM-480.9-5948.8c-6.3-2.5-4.3-134-4.5-193.9,0-21.7,0-43.4,0-70.8,61.7,44.3,119.1,85.6,178.1,128-48.7,38.1-166.5,139.7-173.6,136.8Z"/>
      <path class="cls-47" d="M-2314.3-3780.9c-20.3-14.9-40.5-29.9-60.9-44.7-74.4-54-149-107.9-223.3-162.1-11.6-8.5-23.2-14.4-37.4-7.2-14,7.1-12.5,20.6-12.7,33-.4,24.2-.9,48.5-.3,72.7.3,11.8-3.6,19.8-13.1,27-31.7,23.9-63,48.3-94.1,72.9-45.6,36-90.9,72.4-136.7,108.2-12.1,9.5-11.8,21.5-6.8,32.6,6.3,14.2,18.5,9.3,29.8,5.4,23.4-8.1,42.1-23.8,61.7-37.8,50.8-36.3,101.3-73.1,156.1-112.6,0,39.7-.1,73.3,0,106.9,0,9.2-6.2,13.2-12.4,18-31.4,24.3-62.6,48.8-93.8,73.4-44.1,34.8-89.9,67.3-132.2,104.4-12.9,11.3-14.8,23.1-7.9,36.4,8.6,16.5,21.4,5.9,32.1,2.1,20.3-7.3,36.9-21,54.3-33.3,48.8-34.8,95.6-72.5,146.9-103.7,8.6-1.6,10.5,4.1,11.6,10.6.8,122.2,11.1,403.3,11.1,403.3,0,0,0,0,0,0,39.4,7.7,50.7-.3,51.2-39,.9-67.8.5-135.7,1.1-203.6,0-7.9-4.1-17.3,6.8-25.9,49.8,59.6,99.2,119,149,178.1,19.4,23,39.8,45,59.4,67.8,10.8,12.5,24.1,14.5,36.9,6.9,14.3-8.5,4.2-19.7,0-30-9-21.8-23.6-39.9-38-58.2-62.4-79-124.5-158.3-187.7-236.8-13-16.1-11.8-22,6.4-33.6,84-53.5,165.2-111.2,244.3-171.9,30.4-23.3,30.1-36.3-1.6-59.6ZM-2587.6-3573.3c-8.1-3.3-5.6-172.8-5.8-250.1,0-28,0-56,0-91.3,79.5,57.2,153.6,110.4,229.7,165-62.8,49.2-214.7,180.1-223.9,176.4Z"/>
      <path class="cls-42" d="M-2516.8-3002.8s-488.3,156.4-773.1-411.8c0,0,16.3,18.7,73.1,43.6,46.1,20.3,139.7,50.4,249.3,149.1,85.1,76.6,169.2,160.3,238.1,186.6,68.9,26.3,114.5,46.7,212.7,32.5Z"/>
      <path class="cls-66" d="M-2939.4-3243s-638.3-319.8-289-866.3c29-45.4,90.8-115,150.3-154.8,0,0,117.7,221,107.1,489-8.2,208.4-122.5,403.4,31.7,532.1Z"/>
      <path class="cls-55" d="M-2940.6-3915.4s-49.5-225.4,46.3-328.3c95.8-102.9,188-109.7,338.5-129.8,0,0-8.6,148.1-114.8,225.1-106.2,77.1-254,138.7-270,233Z"/>
      <path class="cls-31" d="M-2688.3-4064.3s132.7-228.3,292.7-226.7c160,1.6,270.4,265,376.3,297.8,0,0-50.2,82.1-195.5-13.4-145.4-95.5-275.9-192.7-473.5-57.7Z"/>
      <g>
        <path class="cls-34" d="M-713.1-3589.4c0-.3,0-.7,0-1,0,.3,0,.7,0,1Z"/>
        <path class="cls-34" d="M-536.9-3662.3l-81.9,69.1c15.7-10.9,46.2-37.3,81.9-69.1Z"/>
        <path class="cls-1" d="M-835.7-3214.8c-26.6-3-50.6,16.1-53.6,42.6-3,26.6,16.1,50.6,42.6,53.6,26.6,3,50.6-16.1,53.6-42.6,3-26.6-16.1-50.6-42.6-53.6Z"/>
        <path class="cls-69" d="M-107.6-4040c20.4,2.3,38.8-12.3,41.1-32.7,2.3-20.4-12.3-38.8-32.7-41.1-20.4-2.3-38.8,12.3-41.1,32.7-2.3,20.4,12.3,38.8,32.7,41.1Z"/>
        <path class="cls-28" d="M-984-3227.2c-12-1.4-22.9,7.3-24.3,19.3-1.4,12,7.3,22.9,19.3,24.3,12,1.4,22.9-7.3,24.3-19.3,1.4-12-7.3-22.9-19.3-24.3Z"/>
        <path class="cls-7" d="M14.2-3796.7c-5.3-.6-10.2,3.2-10.8,8.6-.6,5.3,3.2,10.2,8.6,10.8,5.3.6,10.2-3.2,10.8-8.6.6-5.3-3.2-10.2-8.6-10.8Z"/>
        <path class="cls-39" d="M-732.5-3703.8c7.6-6.5,15.3-11.9,14.7-23.6-2.3-42.6-4.1-85.3-6.5-135.6-67,53.5-128.9,103.1-191.2,152.2-24.1,19-46.8,40-76,51.6-5.4,2.2-10.9,4.5-16.2,5.6,0,4-.1,8-.1,11.9,0,53.5,8.7,105,24.7,153.2,44.2-40.2,90.9-77.5,136-116.7,38.1-33,76.2-66,114.6-98.7Z"/>
        <path class="cls-51" d="M-741.1-3949.5c11.6-9.6,16-20,14.9-35-2.2-30.7-2.9-61.5-3.9-92.2,0-1.1,0-2.2-.1-3.3-139.9,66.2-243,197.5-270.4,354.7,48.3-41.9,96.2-84.2,144.5-126.1,38.1-33,76.3-65.9,115-98.1Z"/>
        <path class="cls-56" d="M-295.3-3867.4c.3.2.5.3.7.5l125.4-105.8c-88.4-94.5-214.2-153.7-353.9-153.7s-93.3,6.8-136.6,19.5c94.7,62.3,189.6,124.3,284.4,186.5,26.7,17.5,53.3,35.2,80,53Z"/>
        <path class="cls-25" d="M-657.3-4020.5c2.1,44.8,3.7,80.3,5.5,115.8,4.9,98.1,11.9,313.2,22.3,316.9,1.4.5,5.1-1.4,10.7-5.3l81.9-69.1c61.3-54.7,137.9-125.7,180.8-162.7-99.7-64.7-196.9-127.8-301.2-195.5Z"/>
        <path class="cls-29" d="M-713.1-3589.4c0-.4,0-.7,0-1-1.8-8.2-4.6-15.3-15.4-12.8-63.2,42.7-120.3,93.3-180.1,140.3-21.2,16.7-41.5,35.1-66.8,45.5-7.1,2.9-14.9,8.4-22.5,9.6l-115.9,232.3,407.9-302.7c-.9-13.5-1.9-26.7-2.7-39.4-1.8-26.7-3.3-51.1-4.4-72Z"/>
        <path class="cls-40" d="M-616-3423.5c-13.3,11.6-7.4,23.2-7,33.2,2.9,75,6.7,149.9,9.6,224.9,42.6,8.1,87.2,10.6,133.1,6.7,32-2.7,63.2-8.7,93.1-17.4-9.8-10.1-19.5-20.2-29.1-30.5-66.7-71.9-133-144.4-199.7-216.9Z"/>
        <path class="cls-63" d="M-898.4-3334.9c13,15.8,27,30.8,41.8,44.9,0,0,111.6,96.5,173.2,106.2-6.6-81.6-15.7-197.2-22.5-294.1l-192.4,143.1Z"/>
        <path class="cls-4" d="M112.6-4086.8l-450,334.7c-81.6,67.3-165.4,131.9-251.8,192.9-22.4,15.8-23.6,23.3-6.1,43,84.8,95.7,168.3,192.5,252.3,289,7.5,8.7,15.1,17.3,22.3,26.2,158.2-73.2,270.9-229.7,281.6-411.3,3.4-57.8-3.3-113.5-18.6-165.7l170.4-308.8Z"/>
        <path class="cls-26" d="M-1023-3706c-14.8,12.7-13.6,28-6.7,41.8,5.5,10.9,13.4,12.4,22,10.6.6-24.4,3-48.3,7.1-71.7-7.4,6.4-14.9,12.9-22.3,19.3Z"/>
        <path class="cls-26" d="M-336.9-3124.3c14.4,15.3,31.4,16.9,47.2,6.5,17.6-11.6,4.2-25.2-1.8-38-7.8-16.6-18.1-31.3-29.4-45.3-21.4,9.9-43.5,18.2-66.4,24.9,16.8,17.3,33.8,34.4,50.3,51.9Z"/>
        <path class="cls-26" d="M-683.4-3183.9c5,61.9,8.6,104.3,8.6,104.3h0c50.4,7.4,64.3-3.4,62.6-52.5-.4-11.1-.8-22.2-1.2-33.3-23.4-4.4-46.2-10.5-68.2-18.2-.6,0-1.2-.2-1.7-.3Z"/>
        <path class="cls-26" d="M-340-3750.2l2.6-1.9c16-13.2,31.9-26.4,47.7-39.8,36.9-31.2,35.9-47.7-4.8-75l-67.1,56.7-175.2,147.9c-35.7,31.9-66.2,58.2-81.9,69.1l-89.7,75.7c1,15.4,2,29.8,2.6,39.4l365.9-272.1h0Z"/>
        <path class="cls-26" d="M-708.6-3517.4c.8,12.7,1.7,25.8,2.7,39.4-.6-9.7-1.6-24-2.6-39.4h0Z"/>
        <path class="cls-26" d="M-668.2-4112.5c-15.2-10-30.3-16.8-47.9-6.8-16.1,9.2-14.9,24.5-14.2,39.3,22.6-10.7,46.2-19.7,70.6-26.9-2.9-1.9-5.7-3.7-8.6-5.6Z"/>
        <path class="cls-26" d="M-983.1-3488.5c-8.5,7.8-17,15.7-25.3,23.7-15.7,15.2-17.4,30.2-7.8,46.7,5.5,9.4,11.8,11.5,18.3,10.4l25.7-51.5c-3.9-9.6-7.5-19.4-10.8-29.3Z"/>
        <path class="cls-26" d="M-908.6-3462.9c59.8-47.1,116.9-97.6,180.1-140.3,10.8-2.6,13.6,4.6,15.4,12.8,0,.3,0,.7,0,1,.8,14.1,2.7,44.7,4.5,71.9l89.7-75.7c-5.6,3.9-9.3,5.8-10.7,5.3-10.4-3.7-17.4-218.8-22.3-316.9-1.8-35.5-3.4-71-5.5-115.8,104.3,67.7,201.5,130.8,301.2,195.5-42.9,36.9-119.5,107.9-180.8,162.7l175.2-147.9,67.1-56.7c-.2-.2-.5-.3-.7-.5-26.6-17.7-53.2-35.4-80-53-94.8-62.2-189.7-124.2-284.4-186.5-24.4,7.1-48,16.2-70.6,26.9,0,1.1,0,2.2.1,3.3,1,30.8,1.7,61.5,3.9,92.2,1.1,15-3.4,25.4-14.9,35-38.7,32.2-76.9,65.1-115,98.1-48.3,41.9-96.2,84.2-144.5,126.1-4.1,23.4-6.5,47.3-7.1,71.7,5.3-1.1,10.8-3.4,16.2-5.6,29.2-11.7,51.9-32.7,76-51.6,62.3-49.1,124.1-98.8,191.2-152.2,2.4,50.4,4.3,93,6.5,135.6.6,11.7-7.1,17.1-14.7,23.6-38.4,32.7-76.5,65.7-114.6,98.7-45.1,39.2-91.8,76.4-136,116.7,3.3,9.9,6.9,19.7,10.8,29.3l-25.7,51.5c7.6-1.3,15.4-6.7,22.5-9.6,25.3-10.4,45.6-28.8,66.8-45.5Z"/>
        <path class="cls-26" d="M-708.6-3517.4h0c-1.8-27.3-3.7-57.9-4.5-72,1.1,20.9,2.7,45.3,4.4,72Z"/>
        <path class="cls-26" d="M-595.3-3516.3c-17.5-19.7-16.3-27.2,6.1-43,86.4-61,170.2-125.6,251.8-192.9l-2.6,1.9h0s-365.9,272.1-365.9,272.1c6.8,97,15.9,212.5,22.5,294.1.6,0,1.2.2,1.7.3,22.1,7.7,44.9,13.8,68.2,18.2-2.9-75-6.7-149.9-9.6-224.9-.4-10-6.3-21.6,7-33.2,66.7,72.5,132.9,144.9,199.7,216.9,9.5,10.3,19.3,20.4,29.1,30.5,22.9-6.7,45.1-15.1,66.4-24.9-7.2-8.9-14.7-17.5-22.3-26.2-83.9-96.5-167.4-193.3-252.3-289Z"/>
      </g>
      <g>
        <path d="M1497.8,1992c-17.8-20.8-36.4-41.8-54.4-62-22.2-25-45.1-50.8-67.2-77.1-5.3-6.3-10.6-12.6-15.8-18.9-71.4,18.6-146,27-221.5,24.2-.2,23.5-.4,47-.7,70.4-.5,42.7-6.9,70-21.2,91.3-17.9,26.7-46.4,40.2-84.6,40.2s-32.6-2-54.6-6.3c-17-3.3-30.7-15.8-35.7-32.4-1.2-4-1.9-8.1-2-12.2v-1.2c-.8-19.7-3.3-90.8-6.4-185.6-22.4-7.4-215.2-78.7-293.8-172.1-48.6-45.6-90.8-97.2-125.8-153-7.7,2.4-16.1,4.1-25.3,4.1-16.4,0-46.8-5.7-66.5-43.5-12.2-23.5-16.1-47-11.5-69.7,3.7-18.2,12.8-35.2,27-50.6-51.8-150.7-57.5-318.8-5.7-482.4,78-246.8,268.7-426.6,497.4-500.9.8-4.3,1.8-8.7,3.1-13.1,7.4-23.8,23.3-42.6,46-54.1,15.3-7.8,31.1-11.7,47.1-11.7,32.4,0,58.8,16.2,78.1,30.3,5.6,4.1,11.3,8.2,16.9,12.3,73.8-4.5,149.3,1.7,224.3,19.5l91.3-53.2c-21.7-8.6-43.6-16.8-66.2-23.9C863.6,100.2,323.6,380.8,163.6,886.9c-120.3,380.5,8.5,780.2,294.9,1023.1,57.6,63,251.9,157.8,331.8,183.1,258.3,81.7,525.5,48.6,746.4-70.7-12.8-6-26.1-15.5-38.9-30.4Z"/>
        <path d="M1722,461.4l-36.1,55.7c215.5,196.3,310,506.7,216.3,802.8-59.9,189.4-186.1,339.4-345,432.6,3.6,4.6,7.2,9.1,10.7,13.6l3.1,3.9c29.9,38,60.9,77.2,81.1,126.5.9,2.2,2.5,5.3,4.2,8.7,4.2,8.3,9.6,18.9,12.4,31.4,149.5-115.6,266.5-276.3,327.8-470.1,117.4-371.3-2.5-760.6-274.5-1005Z"/>
        <path d="M1946.5,364.3v-212.4h-212.4c-2.9,0-5.2,2.3-5.2,5.2v212.4h212.4c2.9,0,5.2-2.3,5.2-5.2Z"/>
        <path d="M1600.4,108.1V21.1h-87c-24.1,0-43.7,19.6-43.7,43.7v87h87c24.1,0,43.7-19.6,43.7-43.7Z"/>
        <path d="M1881.1,470.7v87h87c24.1,0,43.7-19.6,43.7-43.7v-87h-87c-24.1,0-43.7,19.6-43.7,43.7Z"/>
        <path d="M1436,526.4h127.4c35.3,0,64-28.7,64-64v-127.4h-127.4c-35.3,0-64,28.7-64,64v127.4Z"/>
        <path d="M1531.2,1795.1c-5.2-6.6-10.4-13.2-15.6-19.9-122.3-155.3-244.1-311.1-367.9-465.3-26.6-33.1-24.1-45,13.1-68.8,171.7-109.6,337.6-227.9,499.2-352.2,62.1-47.8,61.4-74.4-3.2-122.2-41.4-30.6-82.9-61.2-124.5-91.5-152.1-110.7-304.4-221.1-456.3-332.1-9.8-7.2-19.7-13.4-29.9-17.3-6.7-2.5-13.5-4-20.6-4s-16.8,2-25.9,6.6c-5.3,2.7-9.4,5.8-12.8,9.3-14.8,15.4-12.8,37.6-13.1,58.4-.7,49.6-1.9,99.3-.7,148.9.6,24.2-7.4,40.6-26.7,55.2-64.7,49-128.7,99.1-192.4,149.4-93.3,73.7-185.7,148.4-279.2,221.7-24.7,19.4-24,44-13.9,66.8,6.6,14.7,16.1,19.4,27,19.4s22.4-4.5,33.9-8.4c47.8-16.6,86-48.7,126.1-77.5,103.9-74.4,207.1-149.7,318.9-230.8,0,81.4-.2,150.2.2,219.1.1,18.9-12.7,27.1-25.4,37-64.2,49.8-128,100-191.7,150.4-90.1,71.2-183.7,137.9-270.1,214-10.9,9.6-17.9,19.3-21.5,29.4-5,14.3-3,29.3,5.3,45.2,7.2,13.8,15.8,18.3,25,18.3s.3,0,.4,0c13.2-.2,27.4-9.5,40.1-14,41.5-14.9,75.5-42.9,110.9-68.3,99.7-71.3,195.4-148.5,300.3-212.5,2-.4,3.9-.6,5.6-.6,12.9,0,16.2,10.6,18.2,22.3,1.1,163,10.4,464,16.7,654.2,3.4,102,6,172.2,6,172.2,0,0,0,0,0,0,17.9,3.5,33,5.4,45.6,5.4,44.2,0,58.3-23.6,59.1-85.3.3-24.3.5-48.6.7-72.9.8-114.7.5-229.4,1.6-344.1.1-16.2-8.4-35.4,13.8-53,100.8,120.9,200.9,241.6,301.8,361.7.9,1.1,1.8,2.2,2.7,3.2,39.6,47,81.4,92.1,121.4,138.8,13.4,15.7,28.8,23.3,44.6,23.3s20.6-3.1,30.8-9.2c29.2-17.4,8.7-40.3,0-61.4-18.3-44.8-48.2-81.8-77.6-119.2ZM1099.1,1192.1c-.4,0-.7,0-1-.2-16.5-6.7-11.4-354-11.8-512.5-.1-57.3,0-114.6,0-187.1,162.5,117.1,314,226.2,469.3,338.2-126.6,99.3-430.1,361.6-456.6,361.6Z"/>
      </g>
      <g>
        <path class="cls-5" d="M-1003.9,1585.6c-9.5-11.1-19.5-22.3-29.1-33.2-11.9-13.4-24.1-27.2-35.9-41.2-2.8-3.4-5.6-6.7-8.5-10.1-38.2,9.9-78.1,14.4-118.4,12.9,0,12.6-.2,25.1-.4,37.6-.3,22.8-3.7,37.4-11.4,48.8-9.6,14.3-24.8,21.5-45.2,21.5s-17.4-1.1-29.2-3.4c-9.1-1.8-16.4-8.4-19.1-17.3-.6-2.1-1-4.3-1.1-6.5v-.7c-.4-10.5-1.8-48.5-3.4-99.2-12-4-115-42.1-157.1-92-26-24.4-48.6-51.9-67.3-81.8-4.1,1.3-8.6,2.2-13.5,2.2-8.8,0-25-3-35.6-23.3-6.5-12.6-8.6-25.1-6.1-37.3,2-9.7,6.8-18.8,14.4-27.1-27.7-80.6-30.7-170.4-3.1-257.9,41.7-131.9,143.6-228.1,265.9-267.8.4-2.3.9-4.6,1.7-7,3.9-12.7,12.4-22.7,24.6-28.9,8.2-4.2,16.6-6.3,25.2-6.3,17.3,0,31.4,8.7,41.7,16.2,3,2.2,6,4.4,9,6.6,39.5-2.4,79.8.9,119.9,10.4l48.8-28.5c-11.6-4.6-23.3-9-35.4-12.8-270.6-85.6-559.3,64.5-644.9,335.1-64.3,203.5,4.5,417.1,157.6,547,30.8,33.7,134.7,84.4,177.4,97.9,138.1,43.7,280.9,26,399.1-37.8-6.8-3.2-14-8.3-20.8-16.3Z"/>
        <path class="cls-62" d="M-884,767.3l-19.3,29.8c115.2,104.9,165.7,270.9,115.7,429.2-32,101.3-99.5,181.5-184.5,231.3,1.9,2.4,3.8,4.9,5.7,7.3l1.6,2.1c16,20.3,32.5,41.3,43.3,67.6.5,1.2,1.3,2.9,2.2,4.6,2.3,4.4,5.1,10.1,6.7,16.8,79.9-61.8,142.5-147.7,175.2-251.4,62.8-198.5-1.3-406.7-146.7-537.3Z"/>
        <path class="cls-48" d="M-764,715.3v-113.6h-113.6c-1.5,0-2.8,1.2-2.8,2.8v113.6h113.6c1.5,0,2.8-1.2,2.8-2.8Z"/>
        <path class="cls-68" d="M-949,578.4v-46.5h-46.5c-12.9,0-23.4,10.5-23.4,23.4v46.5h46.5c12.9,0,23.4-10.5,23.4-23.4Z"/>
        <path class="cls-52" d="M-798.9,772.2v46.5h46.5c12.9,0,23.4-10.5,23.4-23.4v-46.5h-46.5c-12.9,0-23.4,10.5-23.4,23.4Z"/>
        <path class="cls-65" d="M-1037,802h68.1c18.9,0,34.2-15.3,34.2-34.2v-68.1h-68.1c-18.9,0-34.2,15.3-34.2,34.2v68.1Z"/>
        <path class="cls-71" d="M-986,1480.3c-2.8-3.5-5.6-7.1-8.4-10.6-65.4-83.1-130.5-166.4-196.7-248.8-14.2-17.7-12.9-24.1,7-36.8,91.8-58.6,180.5-121.9,266.9-188.3,33.2-25.5,32.8-39.8-1.7-65.3-22.1-16.4-44.3-32.7-66.6-48.9-81.3-59.2-162.8-118.2-244-177.5-5.3-3.8-10.5-7.2-16-9.2-3.6-1.3-7.2-2.1-11-2.1s-9,1.1-13.9,3.5c-2.8,1.4-5,3.1-6.8,5-7.9,8.2-6.8,20.1-7,31.2-.4,26.5-1,53.1-.4,79.6.3,13-3.9,21.7-14.3,29.5-34.6,26.2-68.8,53-102.9,79.9-49.9,39.4-99.3,79.3-149.3,118.5-13.2,10.4-12.9,23.5-7.4,35.7,3.5,7.9,8.6,10.4,14.4,10.4s12-2.4,18.1-4.5c25.6-8.9,46-26.1,67.4-41.4,55.5-39.8,110.7-80.1,170.5-123.4,0,43.5-.1,80.3,0,117.2,0,10.1-6.8,14.5-13.6,19.8-34.3,26.6-68.4,53.5-102.5,80.4-48.2,38.1-98.2,73.7-144.4,114.4-5.8,5.1-9.6,10.3-11.5,15.7-2.7,7.7-1.6,15.6,2.8,24.2,3.8,7.4,8.5,9.8,13.4,9.8s.1,0,.2,0c7-.1,14.7-5.1,21.5-7.5,22.2-8,40.4-23,59.3-36.5,53.3-38.1,104.5-79.4,160.5-113.6,1.1-.2,2.1-.3,3-.3,6.9,0,8.6,5.6,9.7,11.9.6,87.2,5.5,248.1,8.9,349.8,1.8,54.5,3.2,92,3.2,92,0,0,0,0,0,0,9.6,1.9,17.6,2.9,24.4,2.9,23.6,0,31.2-12.6,31.6-45.6.2-13,.3-26,.4-39,.5-61.3.3-122.7.9-184,0-8.7-4.5-18.9,7.4-28.3,53.9,64.7,107.4,129.2,161.4,193.4.5.6,1,1.2,1.4,1.7,21.1,25.2,43.5,49.3,64.9,74.2,7.2,8.4,15.4,12.4,23.9,12.4s11-1.7,16.5-4.9c15.6-9.3,4.6-21.6,0-32.8-9.8-23.9-25.7-43.7-41.5-63.7ZM-1217.1,1158c-.2,0-.4,0-.5,0-8.8-3.6-6.1-189.3-6.3-274,0-30.6,0-61.3,0-100,86.9,62.6,167.9,121,250.9,180.8-67.7,53.1-230,193.3-244.1,193.3Z"/>
      </g>
      <g>
        <path class="cls-30" d="M1960.6-3172.7c-9.5-11.1-19.5-22.3-29.1-33.2-11.9-13.4-24.1-27.2-35.9-41.2-2.8-3.4-5.6-6.7-8.5-10.1-38.2,9.9-78.1,14.4-118.4,12.9,0,12.6-.2,25.1-.4,37.6-.3,22.8-3.7,37.4-11.4,48.8-9.6,14.3-24.8,21.5-45.2,21.5s-17.4-1.1-29.2-3.4c-9.1-1.8-16.4-8.4-19.1-17.3-.6-2.1-1-4.3-1.1-6.5v-.7c-.4-10.5-1.8-48.5-3.4-99.2-12-4-115-42.1-157.1-92-26-24.4-48.6-51.9-67.3-81.8-4.1,1.3-8.6,2.2-13.5,2.2-8.8,0-25-3-35.6-23.3-6.5-12.6-8.6-25.1-6.1-37.3,2-9.7,6.8-18.8,14.4-27.1-27.7-80.6-30.7-170.4-3.1-257.9,41.7-131.9,143.6-228.1,265.9-267.8.4-2.3.9-4.6,1.7-7,3.9-12.7,12.4-22.7,24.6-28.9,8.2-4.2,16.6-6.3,25.2-6.3,17.3,0,31.4,8.7,41.7,16.2,3,2.2,6,4.4,9,6.6,39.5-2.4,79.8.9,119.9,10.4l48.8-28.5c-11.6-4.6-23.3-9-35.4-12.8-270.6-85.6-559.3,64.5-644.9,335.1-64.3,203.5,4.5,417.1,157.6,547,30.8,33.7,134.7,84.4,177.4,97.9,138.1,43.7,280.9,26,399.1-37.8-6.8-3.2-14-8.3-20.8-16.3Z"/>
        <path class="cls-60" d="M2080.4-3991.1l-19.3,29.8c115.2,104.9,165.7,270.9,115.7,429.2-32,101.3-99.5,181.5-184.5,231.3,1.9,2.4,3.8,4.9,5.7,7.3l1.6,2.1c16,20.3,32.5,41.3,43.3,67.6.5,1.2,1.3,2.9,2.2,4.6,2.3,4.4,5.1,10.1,6.7,16.8,79.9-61.8,142.5-147.7,175.2-251.4,62.8-198.5-1.3-406.7-146.7-537.3Z"/>
        <path class="cls-37" d="M2200.5-4043v-113.6h-113.6c-1.5,0-2.8,1.2-2.8,2.8v113.6h113.6c1.5,0,2.8-1.2,2.8-2.8Z"/>
        <path class="cls-54" d="M2015.4-4180v-46.5h-46.5c-12.9,0-23.4,10.5-23.4,23.4v46.5h46.5c12.9,0,23.4-10.5,23.4-23.4Z"/>
        <path class="cls-33" d="M2165.5-3986.1v46.5h46.5c12.9,0,23.4-10.5,23.4-23.4v-46.5h-46.5c-12.9,0-23.4,10.5-23.4,23.4Z"/>
        <path class="cls-70" d="M1927.5-3956.3h68.1c18.9,0,34.2-15.3,34.2-34.2v-68.1h-68.1c-18.9,0-34.2,15.3-34.2,34.2v68.1Z"/>
        <path class="cls-57" d="M1978.4-3278c-2.8-3.5-5.6-7.1-8.4-10.6-65.4-83.1-130.5-166.4-196.7-248.8-14.2-17.7-12.9-24.1,7-36.8,91.8-58.6,180.5-121.9,266.9-188.3,33.2-25.5,32.8-39.8-1.7-65.3-22.1-16.4-44.3-32.7-66.6-48.9-81.3-59.2-162.8-118.2-244-177.5-5.3-3.8-10.5-7.2-16-9.2-3.6-1.3-7.2-2.1-11-2.1s-9,1.1-13.9,3.5c-2.8,1.4-5,3.1-6.8,5-7.9,8.2-6.8,20.1-7,31.2-.4,26.5-1,53.1-.4,79.6.3,13-3.9,21.7-14.3,29.5-34.6,26.2-68.8,53-102.9,79.9-49.9,39.4-99.3,79.3-149.3,118.5-13.2,10.4-12.9,23.5-7.4,35.7,3.5,7.9,8.6,10.4,14.4,10.4s12-2.4,18.1-4.5c25.6-8.9,46-26.1,67.4-41.4,55.5-39.8,110.7-80.1,170.5-123.4,0,43.5-.1,80.3,0,117.2,0,10.1-6.8,14.5-13.6,19.8-34.3,26.6-68.4,53.5-102.5,80.4-48.2,38.1-98.2,73.7-144.4,114.4-5.8,5.1-9.6,10.3-11.5,15.7-2.7,7.7-1.6,15.6,2.8,24.2,3.8,7.4,8.5,9.8,13.4,9.8s.1,0,.2,0c7-.1,14.7-5.1,21.5-7.5,22.2-8,40.4-23,59.3-36.5,53.3-38.1,104.5-79.4,160.5-113.6,1.1-.2,2.1-.3,3-.3,6.9,0,8.6,5.6,9.7,11.9.6,87.2,5.5,248.1,8.9,349.8,1.8,54.5,3.2,92,3.2,92,0,0,0,0,0,0,9.6,1.9,17.6,2.9,24.4,2.9,23.6,0,31.2-12.6,31.6-45.6.2-13,.3-26,.4-39,.5-61.3.3-122.7.9-184,0-8.7-4.5-18.9,7.4-28.3,53.9,64.7,107.4,129.2,161.4,193.4.5.6,1,1.2,1.4,1.7,21.1,25.2,43.5,49.3,64.9,74.2,7.2,8.4,15.4,12.4,23.9,12.4s11-1.7,16.5-4.9c15.6-9.3,4.6-21.6,0-32.8-9.8-23.9-25.7-43.7-41.5-63.7ZM1747.4-3600.4c-.2,0-.4,0-.5,0-8.8-3.6-6.1-189.3-6.3-274,0-30.6,0-61.3,0-100,86.9,62.6,167.9,121,250.9,180.8-67.7,53.1-230,193.3-244.1,193.3Z"/>
      </g>
      <g>
        <path class="cls-64" d="M2183.7-5250.4c-394.1,43.8-650-198.7-650-198.7l90,184.9s0,0,0,0c0,0-.1,0-.2,0-288.3-43.9-431.9-260.9-495.7-408.2-176.3-407.1,92.8-735.7,92.8-735.7-236.4,221.8-310.6,580.5-158.8,885.7,126,253.4,375.5,404.7,639.4,417.6h0s0,0,0,0c124.5,6,252.2-18.7,371.8-78.1,39.4-19.6,76.3-42.1,110.6-67.3h-.4c0,0,.4,0,.4,0Z"/>
        <path class="cls-8" d="M2183.7-5250.3c-34.3,25.2-71.2,47.7-110.6,67.3-59.8,29.7-121.5,50.8-184,63.6-62.5,12.9-125.5,17.6-187.7,14.5-264-12.8-513.4-164.1-639.5-417.6-151.6-304.7-77.8-662.8,157.8-884.7.7-.6,1-1,1-1,0,0-269.1,328.6-92.8,735.7,63.8,147.3,207.4,364.3,495.7,408.2.1,0,.2.1.2,0l-90-184.9s255.8,242.3,649.5,198.7c.1,0,.3,0,.4,0Z"/>
        <path class="cls-18" d="M2183.3-5250.3h0c-150.1,60.9-300.4,86-420.5,85.8-252.2-.5-434.9-111.8-542-238.8-430.7-510.7-23.6-980.5-1.2-1003.8.7-.6,1-1,1-1,0,0-269.1,328.6-92.8,735.7,63.8,147.3,207.4,364.3,495.7,408.2.1,0,.2.1.2,0l-90-184.9s255.8,242.3,649.5,198.7Z"/>
      </g>
      <g>
        <path class="cls-35" d="M1773.1-6611.8h0s0,0,0,0c-124.5-6-252.2,18.7-371.8,78.1-39.4,19.6-76.3,42.1-110.6,67.3h.4c0,0-.5,0-.5,0,394.1-43.8,650,198.7,650,198.7l-90-184.9s0,0,0,0c288.5,43.9,432.1,261,495.9,408.3,176.3,407.1-92.8,735.7-92.8,735.7,236.4-221.8,310.6-580.5,158.8-885.7-126-253.4-375.5-404.7-639.4-417.6Z"/>
        <path class="cls-15" d="M1291.1-6466.4h0c150.1-60.9,300.4-86,420.5-85.8,252.2.5,434.9,111.8,542,238.8,430.7,510.7,23.6,980.5,1.2,1003.8-.7.6-1,1-1,1,0,0,269.1-328.6,92.8-735.7-63.8-147.3-207.4-364.3-495.7-408.2-.1,0-.2-.1-.2,0l90,184.9s-255.8-242.3-649.5-198.7Z"/>
      </g>
      <path class="cls-21" d="M2043-6104.8c-23.2-17.1-46.4-34.2-69.7-51.1-85.1-61.8-170.3-123.4-255.3-185.3-13.3-9.7-26.6-16.4-42.8-8.2-16,8.1-14.3,23.5-14.5,37.8-.4,27.7-1.1,55.4-.4,83.1.3,13.5-4.1,22.7-14.9,30.8-36.2,27.3-72,55.3-107.6,83.4-52.2,41.1-103.9,82.8-156.3,123.7-13.8,10.8-13.5,24.6-7.8,37.3,7.3,16.2,21.1,10.6,34.1,6.1,26.7-9.3,48.1-27.2,70.6-43.2,58.1-41.5,115.9-83.6,178.5-128.8,0,45.4-.1,83.8,0,122.3,0,10.6-7.1,15.1-14.2,20.6-35.9,27.8-71.6,55.8-107.3,83.9-50.4,39.7-102.8,76.9-151.1,119.4-14.7,13-17,26.5-9,41.6,9.8,18.8,24.5,6.7,36.7,2.4,23.2-8.3,42.2-24,62-38.1,55.8-39.8,109.3-82.9,168-118.6,9.9-1.8,12,4.7,13.3,12.2.9,139.8,12.7,461.2,12.7,461.2,0,0,0,0,0,0,45.1,8.8,58-.3,58.6-44.6,1-77.6.6-155.2,1.3-232.7,0-9-4.7-19.7,7.7-29.6,56.9,68.1,113.4,136.1,170.4,203.6,22.1,26.3,45.6,51.4,67.9,77.5,12.3,14.3,27.5,16.6,42.2,7.8,16.4-9.7,4.9-22.5,0-34.3-10.3-25-26.9-45.7-43.4-66.5-71.4-90.4-142.4-181-214.6-270.7-14.9-18.5-13.5-25.1,7.3-38.4,96.1-61.2,188.9-127.2,279.4-196.5,34.8-26.6,34.4-41.5-1.8-68.2ZM1730.5-5867.5c-9.2-3.8-6.4-197.6-6.6-286,0-32,0-64,0-104.4,90.9,65.4,175.7,126.2,262.6,188.7-71.8,56.2-245.5,206-256,201.7Z"/>
      <g>
        <path class="cls-36" d="M4272.7-5984.5c-18.3-13.5-36.7-27-55.2-40.4-67.4-48.9-134.9-97.7-202.2-146.7-10.5-7.7-21-13-33.9-6.5-12.6,6.4-11.3,18.6-11.5,29.9-.3,21.9-.8,43.9-.3,65.8.3,10.7-3.3,17.9-11.8,24.4-28.7,21.6-57,43.8-85.2,66-41.3,32.6-82.3,65.5-123.7,97.9-11,8.6-10.7,19.5-6.2,29.5,5.7,12.8,16.7,8.4,27,4.8,21.2-7.3,38.1-21.5,55.9-34.2,46-32.9,91.7-66.2,141.3-102,0,35.9-.1,66.4,0,96.8,0,8.4-5.6,12-11.3,16.3-28.4,22-56.7,44.2-84.9,66.4-39.9,31.5-81.4,60.9-119.6,94.5-11.7,10.3-13.4,21-7.2,33,7.8,14.9,19.4,5.3,29,1.9,18.4-6.6,33.4-19,49.1-30.2,44.2-31.5,86.5-65.6,133-93.9,7.8-1.5,9.5,3.7,10.5,9.6.7,110.6,10.1,365.1,10,365.1,0,0,0,0,0,0,35.7,7,45.9-.2,46.4-35.3.8-61.4.5-122.8,1-184.3,0-7.2-3.7-15.6,6.1-23.4,45.1,53.9,89.8,107.7,134.9,161.2,17.5,20.8,36.1,40.7,53.8,61.3,9.7,11.4,21.8,13.1,33.4,6.2,12.9-7.7,3.8-17.8,0-27.1-8.1-19.8-21.3-36.1-34.4-52.6-56.5-71.5-112.7-143.3-169.9-214.3-11.8-14.6-10.7-19.9,5.8-30.4,76.1-48.4,149.6-100.7,221.2-155.6,27.5-21.1,27.2-32.9-1.4-54ZM4025.2-5796.7c-7.3-3-5-156.4-5.2-226.4,0-25.3,0-50.7,0-82.6,72,51.7,139.1,99.9,207.9,149.4-56.9,44.5-194.4,163.1-202.7,159.7Z"/>
        <path class="cls-67" d="M4530.6-6024.4c-28.1-66.4-68.2-126-119.4-177.1-51.2-51.2-110.8-91.3-177.1-119.4-68.7-29.1-141.7-43.8-216.9-43.8s-148.2,14.7-216.9,43.8c-66.4,28.1-126,68.2-177.1,119.4-51.2,51.2-91.3,110.8-119.4,177.1-29.1,68.7-43.8,141.7-43.8,216.9s14.7,148.2,43.8,216.9c28.1,66.4,68.2,126,119.4,177.1,51.2,51.2,110.8,91.3,177.1,119.4,68.7,29.1,141.7,43.8,216.9,43.8s148.2-14.7,216.9-43.8c66.4-28.1,126-68.2,177.1-119.4,51.2-51.2,91.3-110.8,119.4-177.1,29.1-68.7,43.8-141.7,43.8-216.9s-14.7-148.2-43.8-216.9ZM4017.2-5337.2c-259.3,0-470.3-211-470.3-470.3s211-470.3,470.3-470.3,470.3,211,470.3,470.3-211,470.3-470.3,470.3Z"/>
      </g>
      <g>
        <path class="cls-50" d="M1458.9-713c-338.3,37.6-558-170.5-558-170.5l77.3,158.8s0,0,0,0c0,0,0,0-.2,0-247.5-37.7-370.8-224-425.5-350.4-151.3-349.5,79.7-631.6,79.7-631.6-202.9,190.4-266.6,498.3-136.3,760.3,108.2,217.5,322.3,347.5,548.9,358.5h0s0,0,0,0c106.9,5.2,216.5-16,319.1-67.1,33.8-16.8,65.5-36.1,94.9-57.8h-.3c0,0,.4,0,.4,0Z"/>
        <path class="cls-45" d="M1458.9-713c-29.5,21.6-61.1,41-94.9,57.8-51.3,25.5-104.3,43.6-157.9,54.6-53.6,11.1-107.7,15.1-161.2,12.5-226.6-11-440.7-140.9-549-358.5-130.1-261.6-66.8-569,135.4-759.5.6-.6.9-.8.9-.8,0,0-231,282-79.7,631.6,54.8,126.5,178.1,312.7,425.5,350.4,0,0,.1,0,.2,0l-77.3-158.8s219.6,208,557.6,170.6c0,0,.2,0,.3,0Z"/>
        <path class="cls-9" d="M1458.6-713h0c-128.8,52.3-257.9,73.8-360.9,73.6-216.5-.5-373.3-96-465.3-205-369.8-438.4-20.3-841.7-1.1-861.7.6-.6.9-.8.9-.8,0,0-231,282-79.7,631.6,54.8,126.5,178.1,312.7,425.5,350.4,0,0,.1,0,.2,0l-77.3-158.8s219.6,208,557.6,170.6Z"/>
      </g>
      <g>
        <path class="cls-23" d="M1106.4-1881.7h0s0,0,0,0c-106.9-5.2-216.5,16-319.1,67.1-33.8,16.8-65.5,36.1-94.9,57.8h.3c0,0-.4,0-.4,0,338.3-37.6,558,170.5,558,170.5l-77.3-158.8s0,0,0,0c247.6,37.7,370.9,224,425.7,350.5,151.3,349.5-79.7,631.6-79.7,631.6,202.9-190.4,266.6-498.3,136.3-760.3-108.2-217.5-322.3-347.5-548.9-358.5Z"/>
        <path class="cls-16" d="M692.7-1756.9h0c128.8-52.3,257.9-73.8,360.9-73.6,216.5.5,373.3,96,465.3,205,369.8,438.4,20.3,841.7,1.1,861.7-.6.6-.9.8-.9.8,0,0,231-282,79.7-631.6-54.8-126.5-178.1-312.7-425.5-350.4,0,0-.1,0-.2,0l77.3,158.8s-219.6-208-557.6-170.6Z"/>
      </g>
      <path class="cls-11" d="M1406.5-1388.6c-12.5-9.2-25.1-18.5-37.7-27.6-46.1-33.4-92.2-66.8-138.2-100.3-7.2-5.2-14.4-8.9-23.2-4.4-8.6,4.4-7.7,12.7-7.8,20.4-.2,15-.6,30-.2,45,.2,7.3-2.2,12.3-8.1,16.7-19.6,14.8-39,29.9-58.3,45.1-28.2,22.3-56.3,44.8-84.6,67-7.5,5.9-7.3,13.3-4.2,20.2,3.9,8.8,11.4,5.7,18.4,3.3,14.5-5,26-14.7,38.2-23.4,31.5-22.5,62.7-45.2,96.6-69.7,0,24.6,0,45.4,0,66.2,0,5.7-3.8,8.2-7.7,11.2-19.4,15-38.8,30.2-58.1,45.4-27.3,21.5-55.7,41.7-81.8,64.7-8,7-9.2,14.3-4.9,22.5,5.3,10.2,13.3,3.7,19.9,1.3,12.6-4.5,22.9-13,33.6-20.6,30.2-21.5,59.2-44.9,91-64.2,5.3-1,6.5,2.6,7.2,6.6.5,75.7,6.9,249.7,6.9,249.7,0,0,0,0,0,0,24.4,4.8,31.4-.2,31.7-24.1.5-42,.3-84,.7-126,0-4.9-2.5-10.7,4.2-16,30.8,36.9,61.4,73.7,92.3,110.2,12,14.2,24.7,27.8,36.8,41.9,6.7,7.8,14.9,9,22.9,4.2,8.9-5.3,2.6-12.2,0-18.6-5.6-13.5-14.6-24.7-23.5-36-38.6-48.9-77.1-98-116.2-146.6-8.1-10-7.3-13.6,4-20.8,52-33.1,102.3-68.9,151.2-106.4,18.8-14.4,18.6-22.5-1-36.9ZM1237.3-1260.2c-5-2-3.4-107-3.6-154.9,0-17.3,0-34.6,0-56.5,49.2,35.4,95.1,68.3,142.2,102.2-38.9,30.4-132.9,111.5-138.6,109.2Z"/>
      <g>
        <path class="cls-2" d="M-848.3-713c-338.3,37.6-558-170.5-558-170.5l77.3,158.8s0,0,0,0c0,0,0,0-.2,0-247.5-37.7-370.8-224-425.5-350.4-151.3-349.5,79.7-631.6,79.7-631.6-202.9,190.4-266.6,498.3-136.3,760.3,108.2,217.5,322.3,347.5,548.9,358.5h0s0,0,0,0c106.9,5.2,216.5-16,319.1-67.1,33.8-16.8,65.5-36.1,94.9-57.8h-.3c0,0,.4,0,.4,0Z"/>
        <path class="cls-46" d="M-848.4-713c-29.5,21.6-61.1,41-94.9,57.8-51.3,25.5-104.3,43.6-157.9,54.6-53.6,11.1-107.7,15.1-161.2,12.5-226.6-11-440.7-140.9-549-358.5-130.1-261.6-66.8-569,135.4-759.5.6-.6.9-.8.9-.8,0,0-231,282-79.7,631.6,54.8,126.5,178.1,312.7,425.5,350.4,0,0,.1,0,.2,0l-77.3-158.8s219.6,208,557.6,170.6c0,0,.2,0,.3,0Z"/>
        <path class="cls-20" d="M-848.7-713h0c-128.8,52.3-257.9,73.8-360.9,73.6-216.5-.5-373.3-96-465.3-205-369.8-438.4-20.3-841.7-1.1-861.7.6-.6.9-.8.9-.8,0,0-231,282-79.7,631.6,54.8,126.5,178.1,312.7,425.5,350.4,0,0,.1,0,.2,0l-77.3-158.8s219.6,208,557.6,170.6Z"/>
      </g>
      <g>
        <path class="cls-61" d="M-1200.9-1881.7h0s0,0,0,0c-106.9-5.2-216.5,16-319.1,67.1-33.8,16.8-65.5,36.1-94.9,57.8h.3c0,0-.4,0-.4,0,338.3-37.6,558,170.5,558,170.5l-77.3-158.8s0,0,0,0c247.6,37.7,370.9,224,425.7,350.5,151.3,349.5-79.7,631.6-79.7,631.6,202.9-190.4,266.6-498.3,136.3-760.3-108.2-217.5-322.3-347.5-548.9-358.5Z"/>
        <path class="cls-19" d="M-1614.6-1756.9h0c128.8-52.3,257.9-73.8,360.9-73.6,216.5.5,373.3,96,465.3,205,369.8,438.4,20.3,841.7,1.1,861.7-.6.6-.9.8-.9.8,0,0,231-282,79.7-631.6-54.8-126.5-178.1-312.7-425.5-350.4,0,0-.1,0-.2,0l77.3,158.8s-219.6-208-557.6-170.6Z"/>
      </g>
      <path class="cls-14" d="M-900.8-1388.6c-12.5-9.2-25.1-18.5-37.7-27.6-46.1-33.4-92.2-66.8-138.2-100.3-7.2-5.2-14.4-8.9-23.2-4.4-8.6,4.4-7.7,12.7-7.8,20.4-.2,15-.6,30-.2,45,.2,7.3-2.2,12.3-8.1,16.7-19.6,14.8-39,29.9-58.3,45.1-28.2,22.3-56.3,44.8-84.6,67-7.5,5.9-7.3,13.3-4.2,20.2,3.9,8.8,11.4,5.7,18.4,3.3,14.5-5,26-14.7,38.2-23.4,31.5-22.5,62.7-45.2,96.6-69.7,0,24.6,0,45.4,0,66.2,0,5.7-3.8,8.2-7.7,11.2-19.4,15-38.8,30.2-58.1,45.4-27.3,21.5-55.7,41.7-81.8,64.7-8,7-9.2,14.3-4.9,22.5,5.3,10.2,13.3,3.7,19.9,1.3,12.6-4.5,22.9-13,33.6-20.6,30.2-21.5,59.2-44.9,91-64.2,5.3-1,6.5,2.6,7.2,6.6.5,75.7,6.9,249.7,6.9,249.7,0,0,0,0,0,0,24.4,4.8,31.4-.2,31.7-24.1.5-42,.3-84,.7-126,0-4.9-2.5-10.7,4.2-16,30.8,36.9,61.4,73.7,92.3,110.2,12,14.2,24.7,27.8,36.8,41.9,6.7,7.8,14.9,9,22.9,4.2,8.9-5.3,2.6-12.2,0-18.6-5.6-13.5-14.6-24.7-23.5-36-38.6-48.9-77.1-98-116.2-146.6-8.1-10-7.3-13.6,4-20.8,52-33.1,102.3-68.9,151.2-106.4,18.8-14.4,18.6-22.5-1-36.9ZM-1070-1260.2c-5-2-3.4-107-3.6-154.9,0-17.3,0-34.6,0-56.5,49.2,35.4,95.1,68.3,142.2,102.2-38.9,30.4-132.9,111.5-138.6,109.2Z"/>
      <g>
        <path class="cls-53" d="M4396.1-3136.7c-338.3,37.6-558-170.5-558-170.5l77.3,158.8s0,0,0,0c0,0,0,0-.2,0-247.5-37.7-370.8-224-425.5-350.4-151.3-349.5,79.7-631.6,79.7-631.6-202.9,190.4-266.6,498.3-136.3,760.3,108.2,217.5,322.3,347.5,548.9,358.5h0s0,0,0,0c106.9,5.2,216.5-16,319.1-67.1,33.8-16.8,65.5-36.1,94.9-57.8h-.3c0,0,.4,0,.4,0Z"/>
        <path class="cls-49" d="M4396-3136.7c-29.5,21.6-61.1,41-94.9,57.8-51.3,25.5-104.3,43.6-157.9,54.6-53.6,11.1-107.7,15.1-161.2,12.5-226.6-11-440.7-140.9-549-358.5-130.1-261.6-66.8-569,135.4-759.5.6-.6.9-.8.9-.8,0,0-231,282-79.7,631.6,54.8,126.5,178.1,312.7,425.5,350.4,0,0,.1,0,.2,0l-77.3-158.8s219.6,208,557.6,170.6c0,0,.2,0,.3,0Z"/>
        <path class="cls-12" d="M4395.7-3136.7h0c-128.8,52.3-257.9,73.8-360.9,73.6-216.5-.5-373.3-96-465.3-205-369.8-438.4-20.3-841.7-1.1-861.7.6-.6.9-.8.9-.8,0,0-231,282-79.7,631.6,54.8,126.5,178.1,312.7,425.5,350.4,0,0,.1,0,.2,0l-77.3-158.8s219.6,208,557.6,170.6Z"/>
      </g>
      <g>
        <path class="cls-41" d="M4043.6-4305.4h0s0,0,0,0c-106.9-5.2-216.5,16-319.1,67.1-33.8,16.8-65.5,36.1-94.9,57.8h.3c0,0-.4,0-.4,0,338.3-37.6,558,170.5,558,170.5l-77.3-158.8s0,0,0,0c247.6,37.7,370.9,224,425.7,350.5,151.3,349.5-79.7,631.6-79.7,631.6,202.9-190.4,266.6-498.3,136.3-760.3-108.2-217.5-322.3-347.5-548.9-358.5Z"/>
        <path class="cls-13" d="M3629.8-4180.6h0c128.8-52.3,257.9-73.8,360.9-73.6,216.5.5,373.3,96,465.3,205,369.8,438.4,20.3,841.7,1.1,861.7-.6.6-.9.8-.9.8,0,0,231-282,79.7-631.6-54.8-126.5-178.1-312.7-425.5-350.4,0,0-.1,0-.2,0l77.3,158.8s-219.6-208-557.6-170.6Z"/>
      </g>
      <path class="cls-10" d="M4343.7-3812.3c-12.5-9.2-25.1-18.5-37.7-27.6-46.1-33.4-92.2-66.8-138.2-100.3-7.2-5.2-14.4-8.9-23.2-4.4-8.6,4.4-7.7,12.7-7.8,20.4-.2,15-.6,30-.2,45,.2,7.3-2.2,12.3-8.1,16.7-19.6,14.8-39,29.9-58.3,45.1-28.2,22.3-56.3,44.8-84.6,67-7.5,5.9-7.3,13.3-4.2,20.2,3.9,8.8,11.4,5.7,18.4,3.3,14.5-5,26-14.7,38.2-23.4,31.5-22.5,62.7-45.2,96.6-69.7,0,24.6,0,45.4,0,66.2,0,5.7-3.8,8.2-7.7,11.2-19.4,15-38.8,30.2-58.1,45.4-27.3,21.5-55.7,41.7-81.8,64.7-8,7-9.2,14.3-4.9,22.5,5.3,10.2,13.3,3.7,19.9,1.3,12.6-4.5,22.9-13,33.6-20.6,30.2-21.5,59.2-44.9,91-64.2,5.3-1,6.5,2.6,7.2,6.6.5,75.7,6.9,249.7,6.9,249.7,0,0,0,0,0,0,24.4,4.8,31.4-.2,31.7-24.1.5-42,.3-84,.7-126,0-4.9-2.5-10.7,4.2-16,30.8,36.9,61.4,73.7,92.3,110.2,12,14.2,24.7,27.8,36.8,41.9,6.7,7.8,14.9,9,22.9,4.2,8.9-5.3,2.6-12.2,0-18.6-5.6-13.5-14.6-24.7-23.5-36-38.6-48.9-77.1-98-116.2-146.6-8.1-10-7.3-13.6,4-20.8,52-33.1,102.3-68.9,151.2-106.4,18.8-14.4,18.6-22.5-1-36.9ZM4174.4-3683.9c-5-2-3.4-107-3.6-154.9,0-17.3,0-34.6,0-56.5,49.2,35.4,95.1,68.3,142.2,102.2-38.9,30.4-132.9,111.5-138.6,109.2Z"/>
    </g>
    <g id="Capa_1">
      <g>
        <g>
          <path class="cls-22" d="M-2442.2-6223.8c20.5,76.3-50,156.4-50,156.4,114-170-175.8-381.9-175.8-381.9,0,54.6-58.7,235.4-113.8,271.1-39.6,25.6-80.8-84.9-80.8-84.9,0,0,23.4,85.7-93,181.6-63.5,52.3-79.3,187.6-79.3,235.8,0,120.8,94.1,187.9,211.6,212.7-.4-.2-143.9-75.6-107-183.5,0,0,33.9,101.5,72.4,91.7,38.5-9.8-37.6-59.2-21.9-104.7,15.7-45.5,52.7-55.9,72.7-69,20-13,32.3-37.7,12.3-65,0,0,95.5,71.6,33.9,118.4-61.6,46.8-57,69-26.2,83.3,30.8,14.3,135.5-1.3,169.4-108,0,0,50.8,122.3,0,162.6,0,0,24.6,20.8,73.9-13,0,0-11.5,69.2-76.5,91.8,70-10.4,134.9-32.6,181.3-64.5,171.5-118-3.2-530.8-3.2-530.8Z"/>
          <g class="cls-58">
            <path class="cls-6" d="M-2364.1-5860.3c-.4,1.1-54.3,169.9-256.3,231.8,70-10.4,134.9-32.6,181.3-64.5,51.6-35.5,71.8-97.7,75-167.3Z"/>
          </g>
          <g class="cls-58">
            <path class="cls-6" d="M-3019.9-5930.3c-9.6,25.4-15,53.2-15,84.5,0,118.7,90.9,185.5,205.5,211.3-132.8-50.7-190.1-294.5-190.4-295.8Z"/>
          </g>
        </g>
        <text class="cls-59" transform="translate(-3229.1 -5385.6)"><tspan class="cls-27" x="0" y="0">E</tspan><tspan class="cls-38" x="116.4" y="0">NER</tspan><tspan class="cls-27" x="432.6" y="0">S</tspan><tspan class="cls-38" x="539.7" y="0">EARCH</tspan></text>
        <g>
          <rect x="-3099.5" y="-5596" width="296.7" height="16.7"/>
          <rect x="-2676.1" y="-5596" width="490.9" height="16.7"/>
          <rect x="-3213.4" y="-5371" width="1028" height="16.7"/>
        </g>
      </g>
      <text class="cls-44" transform="translate(-1276.5 -5438.7)"><tspan x="0" y="0">EnergySearch</tspan></text>
      <g class="cls-17">
        <path class="cls-32" d="M796.5-1050.2c0-7.4.7-15.3,2.2-23.6,5.1-28.9,11-57.1,17.8-84.8,6.8-27.7,13-55.2,18.5-82.6,5.5-27.4,10.1-50.5,13.8-69.2,3.7-18.8,6.9-34.9,9.8-48.4,2.8-13.5,5.5-25.1,7.8-34.9,2.4-9.8,5-19.4,7.8-29,1.8-5.7,194.7-59.6,199-58.6,4.3,1.1,7.8,2.5,10.3,4.3,2.5,1.8,4.3,3.9,5.3,6.4,1,2.4,1.5,5,1.5,7.8s-.5,5.3-1.5,8.1c-1,2.9-2.6,5.6-4.8,8.1-2.2,2.5-172.9,49.2-178,57.6-5.2,8.4-20.9,102.7-22.4,108.6-1.5,5.9-2.8,11.4-3.9,16.2-1.1,4.9-1.9,8.5-2.4,10.8-.4,2.1-.7,4-.9,5.7-.2,1.7-.2,3-.2,3.8,0,1.3.2,1.9.7,1.9,2.2,0,6.9-1.4,14-4.3,7.1-2.9,15.4-6.4,24.9-10.7,9.5-4.2,19.6-8.8,30.5-13.7,10.8-4.9,21.2-9.4,31.2-13.7,9.9-4.2,18.8-7.8,26.6-10.7,7.8-2.9,13.4-4.3,16.8-4.3,5.2,0,8.7,1.2,10.5,3.7,1.8,2.4,2.7,5.1,2.7,8.1,0,7.6-3.6,13.9-9.7,17.4-8.2,4.7-154.3,71.1-159.8,73-1.3,4.5-7.3,33.4-9.1,42.4-1.8,9-3.5,18.4-5.2,28-1.6,9.7-3,18.6-4.1,26.9-1.1,8.3-1.7,14-1.7,17.2s-1.7,33.2-1.2,34.3c9.6,22.5,186.9-72.3,193.9-72.6,1.5,0,3.3.2,5.3.6,2,.4,3.9,1.2,5.7,2.4,1.8,1.2,3.3,2.7,4.4,4.6,1.1,1.9,2.9,12.7,2.6,15.7-.6,6.2-152.3,92.3-223.4,86.2-11.3-1-20.1-3-26.1-9.1-6.1-6-9.1-16.1-9.1-30.1Z"/>
      </g>
      <g class="cls-17">
        <path class="cls-24" d="M-1510.8-1050.2c0-7.4.7-15.3,2.2-23.6,5.1-28.9,11-57.1,17.8-84.8,6.8-27.7,13-55.2,18.5-82.6,5.5-27.4,10.1-50.5,13.8-69.2,3.7-18.8,6.9-34.9,9.8-48.4,2.8-13.5,5.5-25.1,7.8-34.9,2.4-9.8,5-19.4,7.8-29,1.8-5.7,194.7-59.6,199-58.6,4.3,1.1,7.8,2.5,10.3,4.3,2.5,1.8,4.3,3.9,5.3,6.4,1,2.4,1.5,5,1.5,7.8s-.5,5.3-1.5,8.1c-1,2.9-2.6,5.6-4.8,8.1-2.2,2.5-172.9,49.2-178,57.6-5.2,8.4-20.9,102.7-22.4,108.6-1.5,5.9-2.8,11.4-3.9,16.2-1.1,4.9-1.9,8.5-2.4,10.8-.4,2.1-.7,4-.9,5.7-.2,1.7-.2,3-.2,3.8,0,1.3.2,1.9.7,1.9,2.2,0,6.9-1.4,14-4.3,7.1-2.9,15.4-6.4,24.9-10.7,9.5-4.2,19.6-8.8,30.5-13.7,10.8-4.9,21.2-9.4,31.2-13.7,9.9-4.2,18.8-7.8,26.6-10.7,7.8-2.9,13.4-4.3,16.8-4.3,5.2,0,8.7,1.2,10.5,3.7,1.8,2.4,2.7,5.1,2.7,8.1,0,7.6-3.6,13.9-9.7,17.4-8.2,4.7-154.3,71.1-159.8,73-1.3,4.5-7.3,33.4-9.1,42.4-1.8,9-3.5,18.4-5.2,28-1.6,9.7-3,18.6-4.1,26.9-1.1,8.3-1.7,14-1.7,17.2s-1.7,33.2-1.2,34.3c9.6,22.5,186.9-72.3,193.9-72.6,1.5,0,3.3.2,5.3.6,2,.4,3.9,1.2,5.7,2.4,1.8,1.2,3.3,2.7,4.4,4.6,1.1,1.9,2.9,12.7,2.6,15.7-.6,6.2-152.3,92.3-223.4,86.2-11.3-1-20.1-3-26.1-9.1-6.1-6-9.1-16.1-9.1-30.1Z"/>
      </g>
      <g class="cls-17">
        <path class="cls-3" d="M3733.7-3473.9c0-7.4.7-15.3,2.2-23.6,5.1-28.9,11-57.1,17.8-84.8,6.8-27.7,13-55.2,18.5-82.6,5.5-27.4,10.1-50.5,13.8-69.2,3.7-18.8,6.9-34.9,9.8-48.4,2.8-13.5,5.5-25.1,7.8-34.9,2.4-9.8,5-19.4,7.8-29,1.8-5.7,194.7-59.6,199-58.6,4.3,1.1,7.8,2.5,10.3,4.3,2.5,1.8,4.3,3.9,5.3,6.4,1,2.4,1.5,5,1.5,7.8s-.5,5.3-1.5,8.1c-1,2.9-2.6,5.6-4.8,8.1-2.2,2.5-172.9,49.2-178,57.6-5.2,8.4-20.9,102.7-22.4,108.6-1.5,5.9-2.8,11.4-3.9,16.2-1.1,4.9-1.9,8.5-2.4,10.8-.4,2.1-.7,4-.9,5.7-.2,1.7-.2,3-.2,3.8,0,1.3.2,1.9.7,1.9,2.2,0,6.9-1.4,14-4.3,7.1-2.9,15.4-6.4,24.9-10.7,9.5-4.2,19.6-8.8,30.5-13.7,10.8-4.9,21.2-9.4,31.2-13.7,9.9-4.2,18.8-7.8,26.6-10.7,7.8-2.9,13.4-4.3,16.8-4.3,5.2,0,8.7,1.2,10.5,3.7,1.8,2.4,2.7,5.1,2.7,8.1,0,7.6-3.6,13.9-9.7,17.4-8.2,4.7-154.3,71.1-159.8,73-1.3,4.5-7.3,33.4-9.1,42.4-1.8,9-3.5,18.4-5.2,28-1.6,9.7-3,18.6-4.1,26.9-1.1,8.3-1.7,14-1.7,17.2s-1.7,33.2-1.2,34.3c9.6,22.5,186.9-72.3,193.9-72.6,1.5,0,3.3.2,5.3.6,2,.4,3.9,1.2,5.7,2.4,1.8,1.2,3.3,2.7,4.4,4.6,1.1,1.9,2.9,12.7,2.6,15.7-.6,6.2-152.3,92.3-223.4,86.2-11.3-1-20.1-3-26.1-9.1-6.1-6-9.1-16.1-9.1-30.1Z"/>
      </g>
    </g>
  </g>
</svg>